<svg xmlns="http://www.w3.org/2000/svg" xmlns:xlink="http://www.w3.org/1999/xlink" width="569.068" height="349.813" viewBox="-50 0 569.068 349.813">
  <defs>
    <linearGradient id="linear-gradient" x1="0.5" y1="1" x2="0.5" gradientUnits="objectBoundingBox">
      <stop offset="0" stop-color="gray" stop-opacity="0.251"/>
      <stop offset="0.54" stop-color="gray" stop-opacity="0.122"/>
      <stop offset="1" stop-color="gray" stop-opacity="0.102"/>
    </linearGradient>
  </defs>
  <g id="Group_12816" data-name="Group 12816" transform="translate(14452.609 22274.001)">
    <g id="Group_12656" data-name="Group 12656" transform="translate(-14452.609 -22274)" opacity="0.3">
      <path id="Path_20313" data-name="Path 20313" d="M255.543,368.072c-10.993-.627-24.633-8.088-35.238-11.381q-18.828-5.85-37.8-11.242-66.044-18.788-133.53-32.034-6.3-1.234-12.615-2.418a89.363,89.363,0,0,1,29.478-35.4,90.448,90.448,0,0,1-.5-9.337c0-49.315,39.411-89.293,88.045-89.293a86.687,86.687,0,0,1,42.729,11.212c34.422-22.643,79.35-36.347,128.506-36.347,69.849,0,131.167,27.677,165.912,69.341L327.2,248.759,227.05,265.671c114.175,3.407,228.7,6.795,342.549-1.2a90.243,90.243,0,0,1,12.993,113.911h0c0,1.786-.075,3.552-.209,5.308-2.9.836-5.7,1.637-8.213,2.169q-60.492,12.774-121.76,21.389c30.1,18.559,66.755,21.181,101.475,29.04-16.813,13.878-39.645,22.414-64.8,22.414H114.472c-40.565,0-73.445-28.244-73.445-63.084h0a89.606,89.606,0,0,1-11.938-32.771C104.151,370.072,180.148,363.779,255.543,368.072Z" transform="translate(-28.576 -125.242)" fill="#d7385e" opacity="0.1"/>
      <path id="Path_20314" data-name="Path 20314" d="M27.98,347.031a89.537,89.537,0,0,1,37.8-73.331,91.974,91.974,0,0,1-.5-9.337c0-49.32,39.416-89.293,88.045-89.293a86.642,86.642,0,0,1,42.739,11.207c34.417-22.643,79.35-36.347,128.506-36.347,79.981,0,148.781,36.282,179.3,88.318,1.7-.1,3.4-.154,5.123-.154,48.619,0,88.045,39.973,88.045,89.288a89.786,89.786,0,0,1-14.485,49.081h0c0,44.371-41.878,80.34-93.517,80.34H114.413c-40.56,0-73.44-28.239-73.44-63.079h0A89.82,89.82,0,0,1,27.98,347.031Z" transform="translate(-27.98 -124.288)" fill="#d7385e" opacity="0.1"/>
      <path id="Path_20315" data-name="Path 20315" d="M817.345,98.38s37.307,19.181,18.106,41.913c0,0-1.8,4.974-7.044,4.591,0,0,1.045-1.91-2.985-3.427a19.356,19.356,0,0,1-4.024-2.134,9.45,9.45,0,0,1-3.616-4.81h0s-7.65-10.187-1.776-29.075c0,0-.776-5.337-.109-6.2l4.546,6.2s-4.676,3.159-5.2,7.77c0,0,4.86-7.755,5.919-6.874.214.179,2.258,3.392,2.258,3.392s-8.1,5.521-8.7,12.674c0,0,4.556-10.023,9.486-11.441l2.8,5.034s-8.854,5.417-9.839,13.535c0,0,5.124-10.307,10.376-12.391l2.084,5.322s-8.531,5.472-9.307,12.212c0,0,7.128-11.316,9.7-10.943,0,0,1.617,5,1.408,6.541,0,0-6.034,4.054-6.133,8.019,0,0,5.561-7.054,6.422-6.591,0,0,.373,7.078-1.338,10.764,0,0,2.92-5.263,2.447-10.764a11.772,11.772,0,0,1,3.586,5.745s1.6-3.9-3.7-7.461c0,0-.5-5.507-1.119-6.183,0,0,5.725,2.776,8.163,6.2,0,0-.905-5.109-8.665-7.631l-1.99-5.4s7.765,3.273,10.167,6.163c0,0-1.731-5.069-10.779-7.461l-2.691-4.974s6.9,2.308,10.272,4.944c0,0-2.616-4.357-11.1-6.337L822.8,106.2s5.009,1.776,6.4,2.418,1.681.318,1.681.318a18.1,18.1,0,0,0-8.944-4.1S817,98.713,817.345,98.38Z" transform="translate(-662.759 -98.381)" fill="#d7385e" opacity="0.1"/>
      <path id="Path_20316" data-name="Path 20316" d="M780.115,144.791s-2.9,18.733-15.39,13.739a3.255,3.255,0,0,1-2.985-2.368s.97.174,1.05-1.761a8.764,8.764,0,0,1,.338-2.03,4.268,4.268,0,0,1,1.552-2.233h0s3.273-4.731,12.212-4.9c0,0,2.179-1.094,2.641-.93l-1.99,2.83a5.725,5.725,0,0,0-4.074-1.124s4.019.995,3.79,1.557c-.045.119-1.129,1.453-1.129,1.453s-3.527-2.686-6.675-1.925c0,0,4.944.527,6.268,2.437l-1.761,1.915s-3.587-3.024-7.208-2.288c0,0,5.153.731,6.795,2.686l-1.99,1.651s-3.557-2.885-6.566-2.253c0,0,5.87,1.448,6.084,2.6a12.312,12.312,0,0,1-2.6,1.532s-2.6-1.99-4.313-1.492c0,0,3.815,1.378,3.741,1.811a13.436,13.436,0,0,1-4.805.965,9.69,9.69,0,0,0,4.974-.5,5.352,5.352,0,0,1-1.955,2.358s1.9.129,2.671-2.651a11.742,11.742,0,0,0,2.487-1.363,11.71,11.71,0,0,1-1.492,4.387s2.064-1.119,2.039-4.805l2.029-1.617s-.294,3.8-1.194,5.238c0,0,1.93-1.467,1.676-5.691l1.746-1.86a19.429,19.429,0,0,1-.662,5.109s1.492-1.741,1.139-5.661l.995-1.378s-.05,2.4-.124,3.089.1.766.1.766a8.157,8.157,0,0,0,.458-4.427S779.921,144.691,780.115,144.791Z" transform="translate(-576.039 -121.451)" fill="#d7385e" opacity="0.1"/>
      <path id="Path_20317" data-name="Path 20317" d="M876.943,161.376s18.539-3.94,18.325,9.491a3.234,3.234,0,0,1-1.149,3.621s-.184-.97-2.02-.353a8.642,8.642,0,0,1-2.015.4,4.288,4.288,0,0,1-2.641-.647h0s-5.591-1.378-8.954-9.67c0,0-1.8-1.646-1.811-2.134l3.363.87a5.72,5.72,0,0,0,.4,4.2s-.5-4.1.1-4.1c.129,0,1.761.542,1.761.542s-1.254,4.248.582,6.924c0,0-1.273-4.81.045-6.725l2.417.96s-1.552,4.427.428,7.551c0,0-1.154-5.074.085-7.3l2.253,1.268s-1.428,4.343.234,6.929c0,0-.741-5.994.264-6.606a12.712,12.712,0,0,1,2.363,1.885s-.955,3.144.144,4.561c0,0-.07-4.059.363-4.144a13.366,13.366,0,0,1,2.611,4.149,9.7,9.7,0,0,0-2.224-4.477,5.357,5.357,0,0,1,2.9.995s-.557-1.821-3.432-1.552a12.389,12.389,0,0,0-2.159-1.845,11.666,11.666,0,0,1,4.631-.164s-1.776-1.527-5.213-.189l-2.234-1.323s3.651-1.074,5.318-.751c0,0-2.054-1.278-5.909.463l-2.363-.995a19.868,19.868,0,0,1,5.009-1.2s-2.164-.776-5.7.955l-1.651-.463s2.258-.811,2.93-.995.681-.368.681-.368a8.143,8.143,0,0,0-4.3,1.149S876.918,161.59,876.943,161.376Z" transform="translate(-748.526 -129.769)" fill="#d7385e" opacity="0.1"/>
    </g>
    <ellipse id="Ellipse_38815" data-name="Ellipse 38815" cx="20.002" cy="3.383" rx="20.002" ry="3.383" transform="translate(-14237.92 -21947.707)" fill="#d7385e"/>
    <path id="Path_20318" data-name="Path 20318" d="M681.6,740.685a5.791,5.791,0,0,1-1.905-2.88,2.555,2.555,0,0,1,1.333-2.93c1.224-.468,2.532.383,3.522,1.239s2.129,1.831,3.422,1.651a5.223,5.223,0,0,1-1.612-4.88,2.049,2.049,0,0,1,.448-.995c.681-.726,1.91-.418,2.726.154,2.587,1.821,3.308,5.332,3.323,8.5a15.964,15.964,0,0,0,.045-3.482,3.588,3.588,0,0,1,1.318-3.1,3.934,3.934,0,0,1,1.99-.468,4.128,4.128,0,0,1,3.248.92,3.206,3.206,0,0,1-.124,3.979,12.763,12.763,0,0,1-3.368,2.7,7.462,7.462,0,0,0-2.4,2.293,2.072,2.072,0,0,0-.179.413H686.1a20.278,20.278,0,0,1-4.492-3.109Z" transform="translate(-14907.795 -22690.553)" fill="#d7385e"/>
    <ellipse id="Ellipse_38816" data-name="Ellipse 38816" cx="20.002" cy="3.383" rx="20.002" ry="3.383" transform="translate(-14284.182 -21937.217)" fill="#d7385e"/>
    <path id="Path_20319" data-name="Path 20319" d="M774.6,761.8a5.79,5.79,0,0,1-1.905-2.88,2.552,2.552,0,0,1,1.333-2.93c1.224-.468,2.532.378,3.522,1.239s2.129,1.831,3.422,1.651a5.223,5.223,0,0,1-1.612-4.88,2.028,2.028,0,0,1,.448-.995c.681-.726,1.91-.418,2.726.154,2.587,1.82,3.308,5.332,3.323,8.5a15.979,15.979,0,0,0,.045-3.482,3.587,3.587,0,0,1,1.318-3.1,3.934,3.934,0,0,1,1.99-.468,4.129,4.129,0,0,1,3.248.92,3.206,3.206,0,0,1-.124,3.979,12.865,12.865,0,0,1-3.368,2.7,7.461,7.461,0,0,0-2.4,2.293,2.066,2.066,0,0,0-.179.413H779.1A20.449,20.449,0,0,1,774.6,761.8Z" transform="translate(-15047.055 -22701.16)" fill="#d7385e"/>
    <ellipse id="Ellipse_38817" data-name="Ellipse 38817" cx="20.002" cy="3.383" rx="20.002" ry="3.383" transform="translate(-13993.186 -21940.947)" fill="#d7385e"/>
    <path id="Path_20320" data-name="Path 20320" d="M189.6,754.3a5.79,5.79,0,0,1-1.905-2.88,2.555,2.555,0,0,1,1.333-2.93c1.224-.468,2.532.383,3.522,1.239s2.129,1.836,3.422,1.651a5.223,5.223,0,0,1-1.612-4.88,2.049,2.049,0,0,1,.448-.995c.681-.726,1.91-.418,2.726.154,2.587,1.821,3.308,5.337,3.323,8.5a15.97,15.97,0,0,0,.045-3.482,3.588,3.588,0,0,1,1.318-3.1,3.936,3.936,0,0,1,1.99-.468,4.131,4.131,0,0,1,3.248.925,3.206,3.206,0,0,1-.124,3.979,12.665,12.665,0,0,1-3.368,2.7,7.461,7.461,0,0,0-2.4,2.293,2.068,2.068,0,0,0-.179.413H194.1A20.281,20.281,0,0,1,189.6,754.3Z" transform="translate(-14171.059 -22697.393)" fill="#d7385e"/>
    <g id="Group_12657" data-name="Group 12657" transform="translate(-14178.983 -22221.811)">
      <path id="Path_20321" data-name="Path 20321" d="M273.508,512a1.211,1.211,0,0,1,0-.134,3.979,3.979,0,0,1,.353-1.845c.806-1.632,2.746-1.9,4.392-2.184a21.662,21.662,0,0,0,7.655-2.88c1.557-.95,3.154-2.348,3.348-4.313,0-.4-.03-.806,0-1.174v-.786c0-1.05.06-2.015.841-2.2A15.129,15.129,0,0,0,300.4,486.317c.343-1.074.582-2.194,1.025-3.223,1.408-3.263,4.542-5.034,6.909-7.5,3.114-3.248,4.92-7.765,6.228-12.3s2.214-9.222,3.93-13.585c2.86-7.277,5.442-15.027,10.292-20.842.731-.88,1.537-1.781,2.388-2.691,4.313-6.3,7.243-13.744,10.978-20.539a20.564,20.564,0,0,1,2.592-3.895,32.785,32.785,0,0,1,4.387-3.626c7.188-5.611,11.784-14.425,17.977-21.355a28.124,28.124,0,0,0,3.557-4.367,13.924,13.924,0,0,0-.219-2.537c-.4-2.064-1.467-4.024-1.283-6.128a8.613,8.613,0,0,0,.1-1.239,4.478,4.478,0,0,0-.378-1.383,13.675,13.675,0,0,0-1.263-2.716,11.557,11.557,0,0,1-1.741-4.581c-1.239-1.174-1.776-3.323-3.323-3.865-.861-.3-1.99-.095-2.487-.945a2.278,2.278,0,0,1-.234-.935,14.241,14.241,0,0,1,.423-5,12.307,12.307,0,0,1-.1-2.6,15.649,15.649,0,0,1,1.816-6.183c.632-1.2,1.492-2.408,2.721-2.686.269-.06.542-.075.8-.154,1.582-.463,2.129-2.905,3.557-3.661-1.836.995-3.711,2.119-5.437,1.283-2.169-1.06-2.348-4.362-2.184-7l.577-9.765c.308-4.974.7-10.252,3.258-14.351,2.308-3.7,6.089-5.924,9.949-7.312,2.607-.94,5.472-1.542,8.053-.582-.154-.109-.3-.219-.453-.318a7.249,7.249,0,0,1,.93.348,17.341,17.341,0,0,1,3.741,2.567,13.5,13.5,0,0,1-.945-4.974,13.221,13.221,0,0,1,2.079-7.193l-2.915-2.452.682-1.109-1.283-1.224a.9.9,0,0,1,.766-.428,1.1,1.1,0,0,1,.179,0,2.656,2.656,0,0,1,.09-1.089l.09.085a3.283,3.283,0,0,1,.358-.866h-.1a3.183,3.183,0,0,1,.2-.323v.154a7.186,7.186,0,0,1,1.522-1.627c2.228-1.831,4.78-3.348,7.541-3.552,1.343-.1,2.691.114,4.034,0,1.811-.124,3.567-.811,5.382-.885a4.617,4.617,0,0,1,4.611,2.487c.323.8.368,1.691.612,2.512.542,1.831,1.99,3.1,3.218,4.452s2.368,3.169,2.029,5.059a7.27,7.27,0,0,1-.627,1.731l-6.3,13.61A26.69,26.69,0,0,0,408.8,300q.06.642.164,1.3c.03.184.065.373.109.562a3.148,3.148,0,0,1,1.9,1.094,1.562,1.562,0,0,1,.328.786,7.108,7.108,0,0,1-.239,1.348,3.483,3.483,0,0,0,.4,1.686,13.091,13.091,0,0,0,2.378,4.059c.438.453.935.831,1.378,1.278a13.7,13.7,0,0,1,1.378,1.726,11.688,11.688,0,0,1,2.209,4.258c.557,2.636,1.681,5.143,2.487,7.715a2.634,2.634,0,0,0,.423.567c.5.468,1.134.667,1.622,1.124,1.094,1.035.995,2.925.726,4.5-.965,5.86-2.656,11.565-3.328,17.475a64.364,64.364,0,0,1-.9,6.939,8.458,8.458,0,0,1-1.069,2.766c.075,2.224-.154,4.477.637,6.526.368.925.88,1.771,1.328,2.656a39.008,39.008,0,0,1,1.646,3.92l2.7,7.113c.5,1.348,1.025,2.706,1.413,4.109a42.3,42.3,0,0,1,.965,12.709.547.547,0,0,0,.08.378c.08.1.269.07.274-.065.035.249.174.671.2.915a7.028,7.028,0,0,1-3.9.254v.393a.611.611,0,0,1,0,.095A8.354,8.354,0,0,1,424,399.4v.03c-.035.2-.08.4-.124.6a.239.239,0,0,1-.04.159c-.045.179-.094.363-.149.537-.03.094-.055.179-.085.269s-.075.219-.114.323-.045.134-.07.2c-.328.856-.721,1.681-1.094,2.517a13.43,13.43,0,0,0-1.268,4.109c-.03.328-.04.657-.055.995v.343a9.409,9.409,0,0,1-.09,1.06c-.09.567-.259,1.109-.393,1.666-.08.328-.139.667-.2.995s-.114.761-.164,1.139q-.562,4.218-.831,8.456c-.045.681-.085,1.368-.119,2.049-.234,4.974-.174,9.949-.114,14.953a29.976,29.976,0,0,0,.5,4.865c.831,4.711,2.547,9.287,3.681,13.963.119.5.229.995.333,1.492a20.041,20.041,0,0,1,.5,3.208,22.68,22.68,0,0,1-.388,4.3q-.368,2.582-.567,5.188a14.535,14.535,0,0,1,1.761,5.243c.6,5.536,5.293,9.69,5.929,15.226a6.844,6.844,0,0,1,.045,1.06,5.29,5.29,0,0,1,0,.686,4.475,4.475,0,0,1-.149,1.751,3.482,3.482,0,0,1-2.9,2.184,12.637,12.637,0,0,1-3.651-.358c-.547-.094-1.094-.154-1.641-.209a3.6,3.6,0,0,0,0,.567,9.789,9.789,0,0,1,.657,1.443,5.1,5.1,0,0,1,.562,1.875,4.168,4.168,0,0,1-.562,2.209,7.359,7.359,0,0,1-6,3.482c-2.338.2-4.661-.313-7-.438h-.4a4.332,4.332,0,0,1-.293.637,7.351,7.351,0,0,1-6,3.482c-2.333.2-4.666-.308-7-.433-.7-.035-1.4-.035-2.094-.085a20.4,20.4,0,0,1-4.218-.771,24.452,24.452,0,0,1-3.387,3.875c-4.1,3.482-9.765,3.283-14.888,2.6s-10.9-1.945-15.569.5c-3.582-.393-5.715,5.293-9.312,5.437-1.651.065-3.134-1.094-4.328-2.368a4.381,4.381,0,0,0-1.542-1.263,3.032,3.032,0,0,0-1.537-.05,11.53,11.53,0,0,0-7.034,4.248c-.905,1.134-1.831,2.562-3.189,2.592-1.219,0-2.3-1.149-3.507-.995a6.425,6.425,0,0,0-2.2,1.244c-2.228,1.318-4.974.1-7.113-1.353s-4.427-3.208-6.934-2.945c-1.627.169-3.074,1.184-4.591,1.846a11.867,11.867,0,0,1-13.764-3.661c-.532-.667-1.079-1.437-1.865-1.612a2.926,2.926,0,0,0-1.542.229c-2.81.935-5.765,1.8-8.64,1.159a7.169,7.169,0,0,1-5.671-6.511,4.79,4.79,0,0,1,.025-.6c0-.124-.025-.254-.025-.383A2.751,2.751,0,0,1,273.508,512ZM386.424,325.11a2.94,2.94,0,0,0,.995,1.313c.04-.214.08-.428.124-.647.179-.925.383-1.845.6-2.761a10.577,10.577,0,0,1-2.114,1.045c.144.348.264.721.408,1.05Zm7.292-22.454v.1a3.6,3.6,0,0,1-1.492,3.323,13.431,13.431,0,0,1,1.492,6.2,10.536,10.536,0,0,0,.995-.791,6.718,6.718,0,0,0,1.308-1.925.666.666,0,0,1-.418-.065c-.254-.174-.244-.582-.209-.91a19.545,19.545,0,0,0-1.229-9.207,10,10,0,0,1-1.676-.771,8.252,8.252,0,0,1,1.219,3.979.17.17,0,0,1,.025.065Zm-24.344,24.966a12.569,12.569,0,0,1,.423,2.955,7.541,7.541,0,0,1,3.785-2.985,5.353,5.353,0,0,1,.557-.134,3.242,3.242,0,0,0-.373-.318c-1.428-.995-3.034-.3-4.676.572a2.4,2.4,0,0,1,.3-.09Z" transform="translate(-257.596 -235.393)" fill="url(#linear-gradient)"/>
      <path id="Path_20322" data-name="Path 20322" d="M309.556,746.881a3.914,3.914,0,0,1-.642,2.248c-1.388,2.273-4.173,3.338-6.825,3.537s-5.308-.318-7.959-.443c-.8-.035-1.592-.04-2.383-.084-4.119-.249-8.053-1.706-11.938-3.149-.637-.234-1.378-.612-1.413-1.283a1.577,1.577,0,0,1,.657-1.174,6.742,6.742,0,0,1,1.7-1.084c2.159-.95,4.745-.7,6.795-1.87.453-.259.866-.577,1.338-.791a5.7,5.7,0,0,1,1.731-.4,26.469,26.469,0,0,1,7.7.254,53.825,53.825,0,0,0,5.8,1.065,7.423,7.423,0,0,0,2.224-.144c.5-.115,1.129-.562,1.6-.264s.736,1.249.96,1.671A4.86,4.86,0,0,1,309.556,746.881Z" transform="translate(-138.68 -474.146)" fill="#3f3d56"/>
      <path id="Path_20323" data-name="Path 20323" d="M309.556,746.881a3.914,3.914,0,0,1-.642,2.248c-1.388,2.273-4.173,3.338-6.825,3.537s-5.308-.318-7.959-.443c-.8-.035-1.592-.04-2.383-.084-4.119-.249-8.053-1.706-11.938-3.149-.637-.234-1.378-.612-1.413-1.283a1.577,1.577,0,0,1,.657-1.174,6.742,6.742,0,0,1,1.7-1.084c2.159-.95,4.745-.7,6.795-1.87.453-.259.866-.577,1.338-.791a5.7,5.7,0,0,1,1.731-.4,26.469,26.469,0,0,1,7.7.254,53.825,53.825,0,0,0,5.8,1.065,7.423,7.423,0,0,0,2.224-.144c.5-.115,1.129-.562,1.6-.264s.736,1.249.96,1.671A4.86,4.86,0,0,1,309.556,746.881Z" transform="translate(-138.68 -474.146)" opacity="0.05"/>
      <path id="Path_20324" data-name="Path 20324" d="M340.876,754.378a3.88,3.88,0,0,1-.642,2.248c-1.388,2.273-4.168,3.338-6.825,3.537s-5.308-.318-7.959-.443c-.8-.035-1.587-.04-2.383-.085-4.119-.249-8.053-1.706-11.938-3.149-.637-.239-1.378-.612-1.413-1.288a1.567,1.567,0,0,1,.657-1.169,6.613,6.613,0,0,1,1.7-1.084c2.159-.95,4.745-.706,6.795-1.875.453-.254.866-.577,1.338-.786a5.852,5.852,0,0,1,1.731-.4,26.463,26.463,0,0,1,7.7.259,52.625,52.625,0,0,0,5.8,1.059,7.245,7.245,0,0,0,2.223-.139c.5-.114,1.129-.562,1.6-.264s.741,1.248.96,1.671A4.779,4.779,0,0,1,340.876,754.378Z" transform="translate(-185.579 -477.912)" fill="#3f3d56"/>
      <path id="Path_20325" data-name="Path 20325" d="M280.027,383.331a2.611,2.611,0,0,1,.945-1.244c1.04-.577,2.268.5,2.721,1.577s.6,2.4,1.492,3.184c.542.5,1.288.677,1.845,1.144,1.244,1.05,1.119,2.985.826,4.576-1.1,5.969-3.024,11.769-3.79,17.783a63.015,63.015,0,0,1-.995,7.063,6.662,6.662,0,0,1-1.99,3.631,3.03,3.03,0,0,1-3.855.134,44.207,44.207,0,0,0,2.731-15.694c-.03-3.482-.5-6.964-.592-10.486-.1-3.074.05-6.153.2-9.227a5.736,5.736,0,0,1,.438-2.3,1.99,1.99,0,0,1,1.875-1.179" transform="translate(-116.593 -293.071)" fill="#fbbebe"/>
      <ellipse id="Ellipse_38818" data-name="Ellipse 38818" cx="12.52" cy="12.52" rx="12.52" ry="12.52" transform="translate(128.58 41.805)" fill="#cb8c8e"/>
      <ellipse id="Ellipse_38819" data-name="Ellipse 38819" cx="12.56" cy="12.56" rx="12.56" ry="12.56" transform="translate(111.668 66.846)" fill="#fbbebe"/>
      <path id="Path_20326" data-name="Path 20326" d="M355.122,383.463c-.109.995-.5,2.154-1.448,2.408a10.643,10.643,0,0,1-1.328.075,2.263,2.263,0,0,0-1.637,1.263,4.055,4.055,0,0,0-.343,2.1,6.626,6.626,0,0,0,1.025,3.074A8.83,8.83,0,0,0,356,395.76a24.831,24.831,0,0,0,5.7,1.05,6.814,6.814,0,0,0,2.582-.08,5.472,5.472,0,0,0,1.492-.756,14.729,14.729,0,0,0,3.666-3.512,8.8,8.8,0,0,0,1.577-3.228,4.855,4.855,0,0,0-.463-3.482,1.716,1.716,0,0,0-.836-.791c-1.064-.383-2.03.935-3.159.965a2.439,2.439,0,0,1-1.99-1.572,10.609,10.609,0,0,0-1.169-2.4,5.162,5.162,0,0,0-2.736-1.423,17.124,17.124,0,0,0-5.571-.915c-.95.095-.328.662-.109,1.348A6.048,6.048,0,0,1,355.122,383.463Z" transform="translate(-236.063 -291.896)" fill="#fbbebe"/>
      <path id="Path_20327" data-name="Path 20327" d="M382.628,403.734c-1.527-.686-2.373-2.343-3.736-3.323a17.511,17.511,0,0,0-3.88-1.637,11.316,11.316,0,0,1-3.581-2.288,9.743,9.743,0,0,0-2.985-2.427,4.646,4.646,0,0,0-2.815,0,9.532,9.532,0,0,0-5.72,5.278,28.38,28.38,0,0,0-2.03,7.74l-.647,3.979a36.561,36.561,0,0,0-.691,7.382A12.288,12.288,0,0,0,358.8,425.4a13.594,13.594,0,0,1,1.438,2.761,4.212,4.212,0,0,1,.423,1.413,7.747,7.747,0,0,1-.114,1.258c-.209,2.139.995,4.134,1.462,6.233a17.949,17.949,0,0,1,.219,4.263,1.045,1.045,0,0,1-.109.537,1,1,0,0,1-.423.338c-.328.174-.667.338-.995.5a37.262,37.262,0,0,0,8.362.885c4.93-.114,9.74-1.492,14.639-2.064.184-2.248-.433-4.417-.572-6.666a27.007,27.007,0,0,1,.274-4.387,53.225,53.225,0,0,0-.114-11.938c-.169-1.393-.4-2.781-.463-4.183-.075-1.661.075-3.328-.045-4.974-.114-1.577-.5-3.139-.537-4.721A.816.816,0,0,1,382.628,403.734Z" transform="translate(-251.73 -299.06)" fill="#d7385e"/>
      <path id="Path_20328" data-name="Path 20328" d="M387.4,482.7c-5.153.03-9.695.179-14.833.532-.905,1.492,1.263,5.516.035,6.75-7.044,7.058-8.61,16.544-16.788,22.26-1.7,1.184-6.467,2.144-7.959,3.606-1.169,1.159.617.333-.249,1.741-4.974,8.118-16.191,16.132-22.693,23.11-5.512,5.914-8.456,13.8-11.709,21.21-1.95,4.432-2.985,9.212-4.477,13.823s-3.547,9.2-7.088,12.505c-2.7,2.517-6.263,4.318-7.859,7.636a31.784,31.784,0,0,0-1.169,3.283A16.415,16.415,0,0,1,280.886,609.5c-1.448.318-.786,2.731-.935,4.208-.2,2.02-2.03,3.452-3.81,4.422a26.7,26.7,0,0,1-8.7,2.93c-1.87.284-4.079.562-4.974,2.219a3.716,3.716,0,0,0-.4,1.88c.065,3.333,3.184,5.969,6.467,6.626s6.636-.229,9.829-1.179a3.7,3.7,0,0,1,1.756-.234,4.371,4.371,0,0,1,2.124,1.641,14.5,14.5,0,0,0,15.654,3.726c1.731-.677,3.373-1.706,5.223-1.88,2.855-.269,5.437,1.522,7.894,2.984s5.561,2.716,8.093,1.373a8.058,8.058,0,0,1,2.487-1.264c1.378-.159,2.607,1.035,3.979.995,1.542-.03,2.6-1.492,3.631-2.636a13.46,13.46,0,0,1,8.009-4.273,3.761,3.761,0,0,1,1.746.05,4.915,4.915,0,0,1,1.756,1.283c1.358,1.3,3.044,2.487,4.92,2.408,4.094-.144,6.526-5.929,10.6-5.531,5.313-2.487,11.889-1.2,17.713-.5s12.277.91,16.942-2.646c2.457-1.88,4.124-4.611,6.417-6.7,3.621-3.293,8.506-4.731,13.217-6.074,7.461-2.129,15.211-4.278,22.882-3.119a17.028,17.028,0,0,0,4.159.363,3.852,3.852,0,0,0,3.3-2.219A4.342,4.342,0,0,0,441,606.3c-.721-5.631-6.059-9.859-6.74-15.495-.343-2.8-1.845-5.243-3.447-7.556a65.172,65.172,0,0,1-3.726-6.422,134.119,134.119,0,0,1-7.312-15.2,131.754,131.754,0,0,1-4.8-17.067c-1.293-5.556-1.91-11.247-2.84-16.878-.676-4.094-1.736-8.113-2.8-12.127-3.134-11.859-6.288-23.787-11.441-34.909C394.548,481.585,390.852,482.684,387.4,482.7Z" transform="translate(-262.059 -342.683)" fill="#e3e8f4"/>
      <path id="Path_20329" data-name="Path 20329" d="M387.385,485.7c-5.153.03-9.695-.318-14.833.035a28.989,28.989,0,0,1-4.049,4.442c-7.044,7.068-12.276,16.022-20.449,21.733a35.792,35.792,0,0,0-4.974,3.691,20.7,20.7,0,0,0-2.95,3.979c-4.974,8.123-8.71,17.161-15.211,24.14-5.511,5.914-8.456,13.8-11.709,21.21-1.95,4.432-2.985,9.212-4.477,13.824s-3.547,9.2-7.088,12.505c-2.7,2.517-6.263,4.318-7.859,7.636a31.793,31.793,0,0,0-1.169,3.283,16.415,16.415,0,0,1-11.729,10.342c-1.448.318-.786,2.731-.935,4.208-.2,2.02-2.03,3.452-3.81,4.422a26.7,26.7,0,0,1-8.7,2.93c-1.87.284-4.079.562-4.974,2.219a3.715,3.715,0,0,0-.4,1.88c.065,3.333,3.184,5.969,6.467,6.626s6.636-.229,9.829-1.179a3.7,3.7,0,0,1,1.756-.234,4.372,4.372,0,0,1,2.124,1.641,14.5,14.5,0,0,0,15.654,3.726c1.731-.677,3.373-1.706,5.223-1.88,2.855-.269,5.437,1.522,7.894,2.984s5.561,2.716,8.093,1.373a8.055,8.055,0,0,1,2.487-1.263c1.378-.159,2.607,1.035,3.979.995,1.542-.03,2.6-1.492,3.631-2.636a13.46,13.46,0,0,1,7.989-4.293,3.761,3.761,0,0,1,1.746.05,4.914,4.914,0,0,1,1.756,1.283c1.358,1.3,3.044,2.487,4.92,2.408,4.094-.144,6.526-5.929,10.6-5.531,5.313-2.487,11.889-1.2,17.713-.5s12.277.91,16.942-2.646c2.457-1.88,4.124-4.611,6.417-6.7,3.621-3.293,8.506-4.731,13.217-6.074,7.461-2.129,15.211-4.278,22.882-3.119a17.031,17.031,0,0,0,4.159.363,3.852,3.852,0,0,0,3.3-2.219,4.343,4.343,0,0,0,.139-2.069c-.721-5.631-6.059-9.859-6.74-15.495-.343-2.8-1.845-5.243-3.447-7.556a65.146,65.146,0,0,1-3.726-6.422,134.109,134.109,0,0,1-7.312-15.2,131.772,131.772,0,0,1-4.8-17.067c-1.293-5.556-1.91-11.247-2.84-16.878-.677-4.094-1.736-8.113-2.8-12.127-3.134-11.859-6.287-23.787-11.441-34.91C394.528,484.585,390.832,485.684,387.385,485.7Z" transform="translate(-262.038 -344.189)" fill="#e3e8f4"/>
      <path id="Path_20330" data-name="Path 20330" d="M387.385,483.7c-5.153.03-9.695-.318-14.833.035a28.988,28.988,0,0,1-4.049,4.442c-7.044,7.068-12.276,16.022-20.449,21.733a35.789,35.789,0,0,0-4.974,3.691,20.705,20.705,0,0,0-2.95,3.979c-4.974,8.123-8.71,17.161-15.211,24.14-5.511,5.914-8.456,13.8-11.709,21.21-1.95,4.432-2.985,9.212-4.477,13.823s-3.547,9.2-7.088,12.505c-2.7,2.517-6.263,4.318-7.859,7.636a31.793,31.793,0,0,0-1.169,3.283,16.415,16.415,0,0,1-11.729,10.342c-1.448.318-.786,2.731-.935,4.208-.2,2.02-2.03,3.452-3.81,4.422a26.7,26.7,0,0,1-8.7,2.93c-1.87.284-4.079.562-4.974,2.219a3.715,3.715,0,0,0-.4,1.88c.065,3.333,3.184,5.969,6.467,6.626s6.636-.229,9.829-1.179a3.7,3.7,0,0,1,1.756-.234,4.371,4.371,0,0,1,2.124,1.642,14.5,14.5,0,0,0,15.654,3.726c1.731-.677,3.373-1.706,5.223-1.88,2.855-.269,5.437,1.522,7.894,2.985s5.561,2.716,8.093,1.373a8.057,8.057,0,0,1,2.487-1.263c1.378-.159,2.607,1.035,3.979.995,1.542-.03,2.6-1.492,3.631-2.636a13.461,13.461,0,0,1,7.989-4.293,3.761,3.761,0,0,1,1.746.05,4.914,4.914,0,0,1,1.756,1.283c1.358,1.3,3.044,2.487,4.92,2.408,4.094-.144,6.526-5.929,10.6-5.531,5.313-2.487,11.889-1.2,17.713-.5s12.277.91,16.942-2.646c2.457-1.88,4.124-4.611,6.417-6.7,3.621-3.293,8.506-4.731,13.217-6.074,7.461-2.129,15.211-4.278,22.882-3.119a17.025,17.025,0,0,0,4.159.363,3.852,3.852,0,0,0,3.3-2.219,4.343,4.343,0,0,0,.139-2.069c-.721-5.631-6.059-9.859-6.74-15.495-.343-2.8-1.845-5.243-3.447-7.556a65.14,65.14,0,0,1-3.726-6.422,134.1,134.1,0,0,1-7.312-15.2,131.772,131.772,0,0,1-4.8-17.067c-1.293-5.556-1.91-11.247-2.84-16.878-.677-4.094-1.736-8.113-2.8-12.127-3.134-11.859-6.287-23.787-11.441-34.909C394.528,482.585,390.832,483.684,387.385,483.7Z" transform="translate(-262.038 -343.184)" fill="#d7385e"/>
      <path id="Union_37" data-name="Union 37" d="M9521.864-8227.74a7.347,7.347,0,0,1-1.015-2.318,4.384,4.384,0,0,0-.817-1.568,4.411,4.411,0,0,0-1.494.949,7.344,7.344,0,0,1-2.039,1.5,1.88,1.88,0,0,1-2.272-.535,2.424,2.424,0,0,1-.031-1.979,2.312,2.312,0,0,1,.569-1.056,2.106,2.106,0,0,1,1.954-.277,9.283,9.283,0,0,0,1.979.5c-1.786-.489-3.668-1.429-4.307-3.172-.2-.547-.19-1.289.325-1.566a1.253,1.253,0,0,1,.634-.1,3.061,3.061,0,0,1,2.517,1.656,2.76,2.76,0,0,0-.415-2.191,2.185,2.185,0,0,1-.166-2.181,1.5,1.5,0,0,1,1.86-.311,3.382,3.382,0,0,1,1.343,1.516,11.871,11.871,0,0,1,.887,2.231,12.088,12.088,0,0,1,1.885-1.489,3.391,3.391,0,0,1,1.921-.644,1.5,1.5,0,0,1,1.455,1.2c.082.764-.6,1.376-1.233,1.8s-1.364.928-1.456,1.689a3.062,3.062,0,0,1,3.008-.174,1.211,1.211,0,0,1,.5.405.828.828,0,0,1,.08.665,1.789,1.789,0,0,1-.581.855c-1.425,1.188-3.523,1.063-5.316.593a9.479,9.479,0,0,0,1.964.555,2.1,2.1,0,0,1,1.557,1.215,2.327,2.327,0,0,1-.038,1.2,2.412,2.412,0,0,1-1.018,1.7,1.334,1.334,0,0,1-.644.159A2.146,2.146,0,0,1,9521.864-8227.74Zm47-3.437a7.376,7.376,0,0,1-1.015-2.318,4.395,4.395,0,0,0-.819-1.571,4.424,4.424,0,0,0-1.492.952,7.314,7.314,0,0,1-2.039,1.5,1.879,1.879,0,0,1-2.272-.532,2.424,2.424,0,0,1-.031-1.979,2.312,2.312,0,0,1,.569-1.056,2.106,2.106,0,0,1,1.954-.277,9.283,9.283,0,0,0,1.979.5c-1.786-.489-3.668-1.432-4.307-3.172-.2-.547-.19-1.289.325-1.566a1.249,1.249,0,0,1,.632-.1,3.064,3.064,0,0,1,2.519,1.653,2.754,2.754,0,0,0-.417-2.188,2.19,2.19,0,0,1-.164-2.181,1.5,1.5,0,0,1,1.86-.313,3.413,3.413,0,0,1,1.343,1.516,11.978,11.978,0,0,1,.887,2.234,11.806,11.806,0,0,1,1.885-1.489,3.391,3.391,0,0,1,1.921-.644,1.494,1.494,0,0,1,1.455,1.2c.082.764-.6,1.376-1.233,1.808s-1.364.928-1.456,1.687a3.062,3.062,0,0,1,3.008-.171,1.205,1.205,0,0,1,.5.405.822.822,0,0,1,.08.665,1.79,1.79,0,0,1-.581.853c-1.424,1.191-3.523,1.065-5.316.593a9.3,9.3,0,0,0,1.964.555,2.119,2.119,0,0,1,1.558,1.217,2.331,2.331,0,0,1-.039,1.2,2.415,2.415,0,0,1-1.017,1.7,1.344,1.344,0,0,1-.644.158A2.147,2.147,0,0,1,9568.864-8231.177Zm23-1.434a7.361,7.361,0,0,1-1.017-2.318,4.389,4.389,0,0,0-.817-1.569,4.343,4.343,0,0,0-1.492.95,7.372,7.372,0,0,1-2.038,1.5,1.88,1.88,0,0,1-2.273-.532,2.428,2.428,0,0,1-.031-1.979,2.348,2.348,0,0,1,.566-1.056,2.112,2.112,0,0,1,1.957-.277,9.371,9.371,0,0,0,1.979.5c-1.788-.489-3.668-1.43-4.309-3.172-.2-.547-.188-1.289.325-1.566a1.232,1.232,0,0,1,.634-.1,3.063,3.063,0,0,1,2.519,1.655,2.764,2.764,0,0,0-.417-2.19,2.192,2.192,0,0,1-.166-2.182,1.494,1.494,0,0,1,1.86-.311,3.373,3.373,0,0,1,1.342,1.514,11.856,11.856,0,0,1,.89,2.234,11.812,11.812,0,0,1,1.885-1.49,3.385,3.385,0,0,1,1.918-.643,1.5,1.5,0,0,1,1.458,1.2c.08.762-.6,1.376-1.236,1.8s-1.361.929-1.455,1.688a3.068,3.068,0,0,1,3.01-.171,1.186,1.186,0,0,1,.494.4.827.827,0,0,1,.08.665,1.757,1.757,0,0,1-.581.854c-1.425,1.19-3.523,1.065-5.314.593a9.467,9.467,0,0,0,1.964.557,2.11,2.11,0,0,1,1.558,1.215,2.338,2.338,0,0,1-.039,1.2,2.429,2.429,0,0,1-1.017,1.7,1.338,1.338,0,0,1-.645.159A2.148,2.148,0,0,1,9591.865-8232.61Zm-51-6.134a7.428,7.428,0,0,1-1.017-2.318,4.321,4.321,0,0,0-.817-1.569,4.43,4.43,0,0,0-1.491.95,7.4,7.4,0,0,1-2.039,1.5,1.876,1.876,0,0,1-2.272-.535,2.424,2.424,0,0,1-.031-1.979,2.315,2.315,0,0,1,.568-1.056,2.106,2.106,0,0,1,1.954-.277,9.191,9.191,0,0,0,1.979.5c-1.786-.489-3.668-1.43-4.307-3.172-.2-.547-.19-1.289.325-1.566a1.242,1.242,0,0,1,.631-.1,3.064,3.064,0,0,1,2.519,1.655,2.755,2.755,0,0,0-.417-2.19,2.19,2.19,0,0,1-.166-2.181,1.5,1.5,0,0,1,1.863-.312,3.4,3.4,0,0,1,1.342,1.517,11.938,11.938,0,0,1,.887,2.231,12.134,12.134,0,0,1,1.885-1.489,3.41,3.41,0,0,1,1.921-.644,1.5,1.5,0,0,1,1.456,1.2c.079.765-.6,1.376-1.234,1.808s-1.364.926-1.455,1.688a3.055,3.055,0,0,1,3.007-.174,1.208,1.208,0,0,1,.5.405.819.819,0,0,1,.077.667,1.8,1.8,0,0,1-.578.854c-1.425,1.188-3.526,1.063-5.317.593a9.275,9.275,0,0,0,1.965.554,2.109,2.109,0,0,1,1.557,1.215,2.327,2.327,0,0,1-.039,1.2,2.425,2.425,0,0,1-1.017,1.7,1.336,1.336,0,0,1-.642.158A2.153,2.153,0,0,1,9540.864-8238.744Zm-29-6a7.43,7.43,0,0,1-1.018-2.318,4.334,4.334,0,0,0-.816-1.569,4.405,4.405,0,0,0-1.492.95,7.387,7.387,0,0,1-2.039,1.5,1.876,1.876,0,0,1-2.272-.535,2.424,2.424,0,0,1-.031-1.979,2.33,2.33,0,0,1,.566-1.056,2.113,2.113,0,0,1,1.957-.277,9.168,9.168,0,0,0,1.979.5c-1.788-.489-3.668-1.43-4.307-3.172-.2-.547-.19-1.289.325-1.566a1.244,1.244,0,0,1,.632-.1,3.066,3.066,0,0,1,2.519,1.655,2.759,2.759,0,0,0-.417-2.19,2.193,2.193,0,0,1-.167-2.181,1.5,1.5,0,0,1,1.863-.312,3.383,3.383,0,0,1,1.34,1.517,11.882,11.882,0,0,1,.89,2.231,12.088,12.088,0,0,1,1.885-1.489,3.4,3.4,0,0,1,1.918-.644,1.5,1.5,0,0,1,1.458,1.2c.079.765-.6,1.376-1.236,1.808s-1.361.926-1.453,1.688a3.057,3.057,0,0,1,3.008-.174,1.211,1.211,0,0,1,.5.405.826.826,0,0,1,.077.667,1.792,1.792,0,0,1-.578.854c-1.427,1.188-3.526,1.063-5.316.593a9.251,9.251,0,0,0,1.964.554,2.107,2.107,0,0,1,1.557,1.215,2.327,2.327,0,0,1-.038,1.2,2.436,2.436,0,0,1-1.018,1.7,1.334,1.334,0,0,1-.642.158A2.151,2.151,0,0,1,9511.865-8244.74Zm47-1.566a7.43,7.43,0,0,1-1.018-2.318,4.349,4.349,0,0,0-.816-1.569,4.381,4.381,0,0,0-1.492.952,7.42,7.42,0,0,1-2.039,1.5,1.876,1.876,0,0,1-2.272-.535,2.424,2.424,0,0,1-.031-1.979,2.33,2.33,0,0,1,.566-1.056,2.113,2.113,0,0,1,1.957-.277,9.168,9.168,0,0,0,1.979.5c-1.788-.489-3.668-1.43-4.307-3.172-.2-.547-.19-1.289.325-1.566a1.244,1.244,0,0,1,.632-.1,3.066,3.066,0,0,1,2.519,1.655,2.759,2.759,0,0,0-.417-2.19,2.193,2.193,0,0,1-.167-2.181,1.5,1.5,0,0,1,1.863-.312,3.378,3.378,0,0,1,1.34,1.517,11.882,11.882,0,0,1,.89,2.231,12.088,12.088,0,0,1,1.885-1.489,3.382,3.382,0,0,1,1.918-.642,1.5,1.5,0,0,1,1.458,1.2c.08.764-.6,1.376-1.236,1.808s-1.361.928-1.453,1.688a3.057,3.057,0,0,1,3.008-.174,1.214,1.214,0,0,1,.494.4.822.822,0,0,1,.079.668,1.792,1.792,0,0,1-.578.854c-1.427,1.188-3.526,1.063-5.316.593a9.251,9.251,0,0,0,1.964.554,2.107,2.107,0,0,1,1.557,1.215,2.327,2.327,0,0,1-.038,1.2,2.436,2.436,0,0,1-1.018,1.7,1.337,1.337,0,0,1-.643.158A2.143,2.143,0,0,1,9558.865-8246.307Zm18.159-7.567a7.346,7.346,0,0,1-1.015-2.316,4.395,4.395,0,0,0-.819-1.571,4.439,4.439,0,0,0-1.492.952,7.347,7.347,0,0,1-2.038,1.5,1.88,1.88,0,0,1-2.273-.533,2.424,2.424,0,0,1-.031-1.979,2.312,2.312,0,0,1,.569-1.056,2.1,2.1,0,0,1,1.954-.277,9.283,9.283,0,0,0,1.979.5c-1.785-.489-3.668-1.432-4.307-3.172-.2-.549-.19-1.289.325-1.566a1.249,1.249,0,0,1,.632-.1,3.064,3.064,0,0,1,2.519,1.653,2.755,2.755,0,0,0-.417-2.188,2.185,2.185,0,0,1-.164-2.181,1.5,1.5,0,0,1,1.86-.313,3.413,3.413,0,0,1,1.343,1.516,11.925,11.925,0,0,1,.887,2.234,11.861,11.861,0,0,1,1.885-1.489,3.393,3.393,0,0,1,1.921-.644,1.494,1.494,0,0,1,1.455,1.2c.08.764-.6,1.376-1.233,1.808s-1.364.928-1.456,1.687a3.067,3.067,0,0,1,3.008-.173,1.228,1.228,0,0,1,.5.407.827.827,0,0,1,.079.665,1.8,1.8,0,0,1-.581.854c-1.424,1.19-3.523,1.063-5.316.593a9.316,9.316,0,0,0,1.964.554,2.113,2.113,0,0,1,1.558,1.218,2.328,2.328,0,0,1-.039,1.2,2.415,2.415,0,0,1-1.017,1.7,1.344,1.344,0,0,1-.644.158A2.143,2.143,0,0,1,9577.024-8253.874Zm-48.159-1.432a7.385,7.385,0,0,1-1.018-2.318,4.373,4.373,0,0,0-.816-1.571,4.377,4.377,0,0,0-1.492.952,7.362,7.362,0,0,1-2.039,1.5,1.877,1.877,0,0,1-2.272-.532,2.424,2.424,0,0,1-.031-1.979,2.33,2.33,0,0,1,.566-1.056,2.112,2.112,0,0,1,1.957-.277,9.254,9.254,0,0,0,1.979.5c-1.788-.489-3.668-1.432-4.307-3.172-.2-.547-.19-1.289.323-1.566a1.256,1.256,0,0,1,.634-.1,3.067,3.067,0,0,1,2.519,1.653,2.754,2.754,0,0,0-.417-2.188,2.19,2.19,0,0,1-.166-2.181,1.5,1.5,0,0,1,1.862-.313,3.4,3.4,0,0,1,1.34,1.516,11.989,11.989,0,0,1,.89,2.234,11.751,11.751,0,0,1,1.885-1.489,3.384,3.384,0,0,1,1.918-.644,1.5,1.5,0,0,1,1.458,1.2c.08.762-.6,1.374-1.236,1.806s-1.361.928-1.453,1.687a3.064,3.064,0,0,1,3.008-.171,1.193,1.193,0,0,1,.494.4.817.817,0,0,1,.079.666,1.769,1.769,0,0,1-.578.853c-1.427,1.19-3.525,1.065-5.316.593a9.269,9.269,0,0,0,1.964.555,2.117,2.117,0,0,1,1.558,1.217,2.339,2.339,0,0,1-.039,1.2,2.433,2.433,0,0,1-1.017,1.7,1.349,1.349,0,0,1-.645.159A2.146,2.146,0,0,1,9528.865-8255.306Zm68.319-4.567a7.391,7.391,0,0,1-1.015-2.318,4.384,4.384,0,0,0-.817-1.568,4.411,4.411,0,0,0-1.494.949,7.4,7.4,0,0,1-2.039,1.5,1.88,1.88,0,0,1-2.272-.535,2.424,2.424,0,0,1-.031-1.979,2.32,2.32,0,0,1,.568-1.056,2.111,2.111,0,0,1,1.957-.277,9.237,9.237,0,0,0,1.977.5c-1.786-.489-3.668-1.429-4.307-3.171-.2-.548-.19-1.29.325-1.567a1.253,1.253,0,0,1,.634-.1,3.058,3.058,0,0,1,2.516,1.656,2.755,2.755,0,0,0-.414-2.191,2.19,2.19,0,0,1-.166-2.181,1.5,1.5,0,0,1,1.86-.311,3.374,3.374,0,0,1,1.342,1.516,11.809,11.809,0,0,1,.888,2.231,11.929,11.929,0,0,1,1.885-1.489,3.39,3.39,0,0,1,1.92-.644,1.5,1.5,0,0,1,1.456,1.2c.082.764-.6,1.376-1.234,1.8s-1.363.928-1.455,1.689a3.062,3.062,0,0,1,3.008-.174,1.211,1.211,0,0,1,.5.405.828.828,0,0,1,.08.665,1.785,1.785,0,0,1-.581.855c-1.425,1.188-3.523,1.063-5.316.593a9.479,9.479,0,0,0,1.964.555,2.1,2.1,0,0,1,1.557,1.215,2.307,2.307,0,0,1-.038,1.2,2.416,2.416,0,0,1-1.018,1.7,1.334,1.334,0,0,1-.644.159A2.146,2.146,0,0,1,9597.185-8259.873Zm-48.159-1.566a7.42,7.42,0,0,1-1.018-2.318,4.293,4.293,0,0,0-.817-1.568,4.427,4.427,0,0,0-1.491.949,7.4,7.4,0,0,1-2.039,1.5,1.879,1.879,0,0,1-2.272-.535,2.424,2.424,0,0,1-.031-1.979,2.32,2.32,0,0,1,.568-1.056,2.108,2.108,0,0,1,1.955-.277,9.283,9.283,0,0,0,1.979.5c-1.786-.489-3.668-1.429-4.307-3.172-.2-.547-.19-1.289.325-1.566a1.242,1.242,0,0,1,.631-.1,3.063,3.063,0,0,1,2.519,1.656,2.757,2.757,0,0,0-.417-2.191,2.192,2.192,0,0,1-.166-2.181,1.5,1.5,0,0,1,1.863-.311,3.381,3.381,0,0,1,1.34,1.516,11.882,11.882,0,0,1,.89,2.231,12.08,12.08,0,0,1,1.884-1.489,3.394,3.394,0,0,1,1.919-.644,1.5,1.5,0,0,1,1.458,1.2c.079.764-.6,1.376-1.236,1.8s-1.361.928-1.453,1.689a3.062,3.062,0,0,1,3.008-.174,1.211,1.211,0,0,1,.5.405.816.816,0,0,1,.077.665,1.783,1.783,0,0,1-.578.855c-1.425,1.188-3.526,1.063-5.316.593a9.428,9.428,0,0,0,1.964.555,2.1,2.1,0,0,1,1.557,1.215,2.327,2.327,0,0,1-.038,1.2,2.421,2.421,0,0,1-1.018,1.7,1.334,1.334,0,0,1-.644.159A2.145,2.145,0,0,1,9549.025-8261.439Zm18-7.564a7.394,7.394,0,0,1-1.018-2.316,4.373,4.373,0,0,0-.816-1.571,4.348,4.348,0,0,0-1.492.952,7.4,7.4,0,0,1-2.039,1.5,1.877,1.877,0,0,1-2.272-.532,2.431,2.431,0,0,1-.031-1.981,2.315,2.315,0,0,1,.566-1.053,2.1,2.1,0,0,1,1.957-.277,9.307,9.307,0,0,0,1.979.5c-1.788-.487-3.668-1.43-4.307-3.172-.2-.547-.19-1.289.323-1.564a1.2,1.2,0,0,1,.634-.1,3.061,3.061,0,0,1,2.519,1.653,2.752,2.752,0,0,0-.417-2.188,2.2,2.2,0,0,1-.166-2.184,1.5,1.5,0,0,1,1.862-.311,3.385,3.385,0,0,1,1.34,1.516,11.918,11.918,0,0,1,.89,2.232,12.094,12.094,0,0,1,1.885-1.49,3.388,3.388,0,0,1,1.918-.641,1.5,1.5,0,0,1,1.458,1.2c.08.764-.6,1.376-1.236,1.808s-1.361.928-1.453,1.687a3.059,3.059,0,0,1,3.008-.173,1.223,1.223,0,0,1,.494.4.822.822,0,0,1,.079.668,1.778,1.778,0,0,1-.578.853c-1.427,1.188-3.525,1.063-5.316.594a9.267,9.267,0,0,0,1.964.554,2.11,2.11,0,0,1,1.558,1.215,2.338,2.338,0,0,1-.039,1.2,2.431,2.431,0,0,1-1.017,1.7,1.344,1.344,0,0,1-.644.158A2.146,2.146,0,0,1,9567.025-8269Zm-28-9a7.391,7.391,0,0,1-1.015-2.316,4.421,4.421,0,0,0-.817-1.571,4.373,4.373,0,0,0-1.491.952,7.4,7.4,0,0,1-2.039,1.5,1.877,1.877,0,0,1-2.272-.532,2.424,2.424,0,0,1-.031-1.979,2.325,2.325,0,0,1,.566-1.056,2.1,2.1,0,0,1,1.957-.277,9.239,9.239,0,0,0,1.979.5c-1.789-.489-3.668-1.432-4.31-3.172-.2-.547-.187-1.289.325-1.566a1.253,1.253,0,0,1,.634-.1,3.066,3.066,0,0,1,2.519,1.653,2.762,2.762,0,0,0-.417-2.188,2.193,2.193,0,0,1-.166-2.181,1.5,1.5,0,0,1,1.86-.313,3.413,3.413,0,0,1,1.343,1.516,11.728,11.728,0,0,1,.887,2.234,12.028,12.028,0,0,1,1.885-1.489,3.4,3.4,0,0,1,1.921-.644,1.5,1.5,0,0,1,1.458,1.2c.079.764-.6,1.376-1.236,1.808s-1.364.928-1.456,1.687a3.062,3.062,0,0,1,3.008-.171,1.175,1.175,0,0,1,.5.405.822.822,0,0,1,.08.665,1.79,1.79,0,0,1-.581.853c-1.424,1.191-3.523,1.063-5.316.594a9.325,9.325,0,0,0,1.967.554,2.111,2.111,0,0,1,1.557,1.217,2.3,2.3,0,0,1-.041,1.2,2.419,2.419,0,0,1-1.015,1.7,1.344,1.344,0,0,1-.644.158A2.153,2.153,0,0,1,9539.023-8278Zm47-.87a7.4,7.4,0,0,1-1.015-2.318,4.429,4.429,0,0,0-.817-1.569,4.344,4.344,0,0,0-1.491.952,7.464,7.464,0,0,1-2.039,1.5,1.877,1.877,0,0,1-2.272-.533,2.429,2.429,0,0,1-.031-1.98,2.313,2.313,0,0,1,.566-1.054,2.105,2.105,0,0,1,1.957-.279,9.125,9.125,0,0,0,1.979.5c-1.788-.487-3.668-1.43-4.31-3.172-.2-.547-.187-1.289.325-1.566a1.231,1.231,0,0,1,.634-.1,3.05,3.05,0,0,1,2.517,1.653,2.758,2.758,0,0,0-.415-2.19,2.194,2.194,0,0,1-.166-2.182,1.5,1.5,0,0,1,1.86-.311,3.387,3.387,0,0,1,1.343,1.516,11.711,11.711,0,0,1,.887,2.232,12.227,12.227,0,0,1,1.885-1.489,3.4,3.4,0,0,1,1.921-.642,1.5,1.5,0,0,1,1.458,1.2c.079.764-.6,1.376-1.236,1.808s-1.364.928-1.456,1.687a3.06,3.06,0,0,1,3.008-.173,1.21,1.21,0,0,1,.5.4.83.83,0,0,1,.08.668,1.8,1.8,0,0,1-.581.854c-1.424,1.188-3.523,1.063-5.316.593a9.325,9.325,0,0,0,1.967.554,2.107,2.107,0,0,1,1.557,1.215,2.3,2.3,0,0,1-.041,1.2,2.419,2.419,0,0,1-1.015,1.7,1.344,1.344,0,0,1-.644.158A2.153,2.153,0,0,1,9586.023-8278.873Zm-28-7.567a7.411,7.411,0,0,1-1.014-2.316,4.421,4.421,0,0,0-.817-1.571,4.419,4.419,0,0,0-1.494.952,7.351,7.351,0,0,1-2.039,1.5,1.88,1.88,0,0,1-2.272-.533,2.424,2.424,0,0,1-.029-1.979,2.288,2.288,0,0,1,.566-1.056,2.106,2.106,0,0,1,1.957-.277,9.224,9.224,0,0,0,1.979.5c-1.788-.489-3.668-1.432-4.309-3.172-.2-.547-.188-1.289.325-1.566a1.253,1.253,0,0,1,.634-.1,3.061,3.061,0,0,1,2.516,1.653,2.749,2.749,0,0,0-.414-2.188,2.19,2.19,0,0,1-.166-2.181,1.5,1.5,0,0,1,1.86-.313,3.41,3.41,0,0,1,1.342,1.516,11.928,11.928,0,0,1,.888,2.234,11.854,11.854,0,0,1,1.884-1.489,3.4,3.4,0,0,1,1.921-.644,1.5,1.5,0,0,1,1.456,1.2c.082.764-.6,1.376-1.234,1.808s-1.364.928-1.455,1.687a3.062,3.062,0,0,1,3.008-.171,1.211,1.211,0,0,1,.5.405.822.822,0,0,1,.079.665,1.789,1.789,0,0,1-.58.854c-1.425,1.19-3.523,1.063-5.316.593a9.283,9.283,0,0,0,1.964.554,2.1,2.1,0,0,1,1.557,1.217,2.3,2.3,0,0,1-.038,1.2,2.416,2.416,0,0,1-1.018,1.7,1.344,1.344,0,0,1-.644.158A2.148,2.148,0,0,1,9558.023-8286.44Zm18-7.562a7.357,7.357,0,0,1-1.015-2.318,4.354,4.354,0,0,0-.819-1.569,4.431,4.431,0,0,0-1.492.949,7.337,7.337,0,0,1-2.039,1.5,1.88,1.88,0,0,1-2.272-.532,2.426,2.426,0,0,1-.031-1.979,2.309,2.309,0,0,1,.569-1.055,2.1,2.1,0,0,1,1.954-.277,9.339,9.339,0,0,0,1.979.5c-1.786-.488-3.668-1.429-4.307-3.171-.2-.547-.19-1.29.325-1.566a1.228,1.228,0,0,1,.632-.1,3.06,3.06,0,0,1,2.519,1.655,2.757,2.757,0,0,0-.417-2.19,2.191,2.191,0,0,1-.164-2.182,1.5,1.5,0,0,1,1.86-.311,3.387,3.387,0,0,1,1.343,1.516,11.924,11.924,0,0,1,.887,2.231,11.861,11.861,0,0,1,1.885-1.489,3.4,3.4,0,0,1,1.921-.644,1.5,1.5,0,0,1,1.455,1.2c.082.764-.6,1.376-1.233,1.8s-1.364.928-1.456,1.688a3.064,3.064,0,0,1,3.008-.171,1.2,1.2,0,0,1,.5.4.827.827,0,0,1,.08.665,1.77,1.77,0,0,1-.581.854c-1.424,1.19-3.523,1.065-5.316.593a9.484,9.484,0,0,0,1.964.557,2.107,2.107,0,0,1,1.557,1.215,2.327,2.327,0,0,1-.038,1.2,2.415,2.415,0,0,1-1.017,1.7,1.338,1.338,0,0,1-.645.159A2.148,2.148,0,0,1,9576.024-8294Zm15.841-6.871a7.35,7.35,0,0,1-1.017-2.316,4.421,4.421,0,0,0-.817-1.571,4.392,4.392,0,0,0-1.492.952,7.376,7.376,0,0,1-2.038,1.5,1.879,1.879,0,0,1-2.273-.533,2.428,2.428,0,0,1-.031-1.979,2.343,2.343,0,0,1,.566-1.056,2.107,2.107,0,0,1,1.957-.277,9.254,9.254,0,0,0,1.979.5c-1.788-.489-3.668-1.432-4.309-3.172-.2-.547-.188-1.289.325-1.566a1.253,1.253,0,0,1,.634-.1,3.067,3.067,0,0,1,2.519,1.653,2.763,2.763,0,0,0-.417-2.188,2.19,2.19,0,0,1-.166-2.181,1.5,1.5,0,0,1,1.86-.313,3.393,3.393,0,0,1,1.342,1.516,11.8,11.8,0,0,1,.89,2.234,11.861,11.861,0,0,1,1.885-1.489,3.386,3.386,0,0,1,1.918-.644,1.5,1.5,0,0,1,1.458,1.2c.08.764-.6,1.376-1.236,1.808s-1.361.928-1.455,1.687a3.066,3.066,0,0,1,3.01-.171,1.181,1.181,0,0,1,.494.405.826.826,0,0,1,.08.665,1.784,1.784,0,0,1-.581.854c-1.425,1.19-3.523,1.063-5.314.593a9.283,9.283,0,0,0,1.964.554,2.114,2.114,0,0,1,1.558,1.217,2.331,2.331,0,0,1-.039,1.2,2.431,2.431,0,0,1-1.017,1.7,1.344,1.344,0,0,1-.644.158A2.146,2.146,0,0,1,9591.865-8300.874Zm-45.841-.694a7.357,7.357,0,0,1-1.015-2.318,4.386,4.386,0,0,0-.819-1.569,4.434,4.434,0,0,0-1.492.95,7.354,7.354,0,0,1-2.038,1.5,1.878,1.878,0,0,1-2.273-.535,2.424,2.424,0,0,1-.031-1.979,2.316,2.316,0,0,1,.569-1.056,2.106,2.106,0,0,1,1.954-.277,9.168,9.168,0,0,0,1.979.5c-1.785-.489-3.668-1.43-4.307-3.172-.2-.547-.19-1.289.325-1.566a1.249,1.249,0,0,1,.632-.1,3.062,3.062,0,0,1,2.519,1.655,2.759,2.759,0,0,0-.417-2.19,2.185,2.185,0,0,1-.164-2.181,1.5,1.5,0,0,1,1.86-.312,3.389,3.389,0,0,1,1.343,1.517,11.871,11.871,0,0,1,.887,2.231,12.088,12.088,0,0,1,1.885-1.489,3.408,3.408,0,0,1,1.921-.644,1.5,1.5,0,0,1,1.455,1.2c.08.765-.6,1.376-1.233,1.808s-1.364.926-1.456,1.688a3.057,3.057,0,0,1,3.008-.174,1.208,1.208,0,0,1,.5.405.831.831,0,0,1,.079.667,1.8,1.8,0,0,1-.581.854c-1.424,1.188-3.523,1.063-5.316.593a9.316,9.316,0,0,0,1.964.554,2.11,2.11,0,0,1,1.558,1.215,2.338,2.338,0,0,1-.039,1.2,2.419,2.419,0,0,1-1.017,1.7,1.34,1.34,0,0,1-.643.158A2.151,2.151,0,0,1,9546.024-8301.568Zm17.839-6.871a7.446,7.446,0,0,1-1.015-2.318,4.382,4.382,0,0,0-.816-1.568,4.36,4.36,0,0,0-1.492.949,7.431,7.431,0,0,1-2.039,1.5,1.878,1.878,0,0,1-2.272-.535,2.424,2.424,0,0,1-.031-1.979,2.335,2.335,0,0,1,.566-1.056,2.11,2.11,0,0,1,1.957-.277,9.239,9.239,0,0,0,1.979.5c-1.788-.489-3.668-1.429-4.31-3.172-.2-.547-.187-1.289.325-1.566a1.253,1.253,0,0,1,.634-.1,3.057,3.057,0,0,1,2.517,1.656,2.76,2.76,0,0,0-.415-2.191,2.192,2.192,0,0,1-.166-2.181,1.5,1.5,0,0,1,1.86-.311,3.382,3.382,0,0,1,1.343,1.516,11.677,11.677,0,0,1,.887,2.231,12.227,12.227,0,0,1,1.885-1.489,3.4,3.4,0,0,1,1.921-.644,1.505,1.505,0,0,1,1.458,1.2c.079.765-.6,1.377-1.236,1.806s-1.364.928-1.456,1.689a3.06,3.06,0,0,1,3.008-.174,1.2,1.2,0,0,1,.5.405.827.827,0,0,1,.079.665,1.789,1.789,0,0,1-.581.855c-1.424,1.188-3.523,1.063-5.316.593a9.506,9.506,0,0,0,1.967.555,2.105,2.105,0,0,1,1.557,1.214,2.3,2.3,0,0,1-.041,1.2,2.411,2.411,0,0,1-1.017,1.7,1.33,1.33,0,0,1-.643.159A2.155,2.155,0,0,1,9563.863-8308.439Zm18-7.564a7.441,7.441,0,0,1-1.014-2.316,4.421,4.421,0,0,0-.817-1.571,4.374,4.374,0,0,0-1.494.952,7.407,7.407,0,0,1-2.039,1.5,1.879,1.879,0,0,1-2.272-.532,2.438,2.438,0,0,1-.031-1.981,2.3,2.3,0,0,1,.568-1.053,2.1,2.1,0,0,1,1.957-.277,9.218,9.218,0,0,0,1.979.5c-1.788-.486-3.668-1.429-4.309-3.169-.2-.549-.188-1.292.325-1.566a1.193,1.193,0,0,1,.634-.1,3.055,3.055,0,0,1,2.516,1.653,2.747,2.747,0,0,0-.414-2.188,2.2,2.2,0,0,1-.166-2.184,1.5,1.5,0,0,1,1.86-.311,3.4,3.4,0,0,1,1.342,1.516,11.981,11.981,0,0,1,.888,2.231,12.138,12.138,0,0,1,1.884-1.489,3.414,3.414,0,0,1,1.921-.641,1.5,1.5,0,0,1,1.456,1.2c.082.764-.6,1.376-1.234,1.808s-1.364.928-1.455,1.687a3.06,3.06,0,0,1,3.008-.173,1.249,1.249,0,0,1,.5.4.829.829,0,0,1,.079.668,1.782,1.782,0,0,1-.58.853c-1.425,1.188-3.523,1.063-5.316.593a9.285,9.285,0,0,0,1.964.555,2.1,2.1,0,0,1,1.557,1.215,2.307,2.307,0,0,1-.038,1.2,2.418,2.418,0,0,1-1.018,1.7,1.344,1.344,0,0,1-.644.158A2.148,2.148,0,0,1,9581.863-8316Zm-22.159-8.349a7.41,7.41,0,0,1-1.015-2.316,4.421,4.421,0,0,0-.817-1.571,4.434,4.434,0,0,0-1.494.952,7.351,7.351,0,0,1-2.039,1.5,1.879,1.879,0,0,1-2.272-.533,2.432,2.432,0,0,1-.031-1.979,2.31,2.31,0,0,1,.568-1.056,2.1,2.1,0,0,1,1.957-.277,9.118,9.118,0,0,0,1.977.5c-1.786-.487-3.666-1.43-4.307-3.169-.2-.55-.19-1.292.325-1.567a1.253,1.253,0,0,1,.634-.1,3.061,3.061,0,0,1,2.516,1.653,2.749,2.749,0,0,0-.414-2.188,2.19,2.19,0,0,1-.166-2.181,1.5,1.5,0,0,1,1.86-.313,3.408,3.408,0,0,1,1.342,1.517,11.954,11.954,0,0,1,.888,2.231,11.954,11.954,0,0,1,1.884-1.487,3.4,3.4,0,0,1,1.921-.644,1.5,1.5,0,0,1,1.456,1.2c.082.764-.6,1.376-1.234,1.808s-1.363.928-1.455,1.688a3.065,3.065,0,0,1,3.008-.174,1.232,1.232,0,0,1,.5.407.823.823,0,0,1,.079.665,1.789,1.789,0,0,1-.58.854c-1.425,1.19-3.523,1.063-5.316.593a9.3,9.3,0,0,0,1.964.554,2.107,2.107,0,0,1,1.557,1.218,2.3,2.3,0,0,1-.038,1.2,2.416,2.416,0,0,1-1.018,1.7,1.337,1.337,0,0,1-.643.158A2.143,2.143,0,0,1,9559.7-8324.353Z" transform="translate(-9470.91 8506.338)" fill="#c52b4f" opacity="0.5"/>
      <path id="Path_20471" data-name="Path 20471" d="M387.385,483.7c-5.153.03-9.695-.318-14.833.035a28.988,28.988,0,0,1-4.049,4.442c-2.268,2.276-4.348,4.748-6.593,7.479-4.125,5.019,48.471,24.9,47.412,20.889-3.134-11.859-6.287-23.787-11.441-34.909C394.528,482.585,390.832,483.684,387.385,483.7Z" transform="translate(-262.039 -343.184)" fill="#b51037" opacity="0.8"/>
      <path id="Path_20331" data-name="Path 20331" d="M300.41,531.68c1.642,1.8,1.268,4.651.308,6.884s-2.417,4.328-2.686,6.745c-.09.806-.04,1.622-.179,2.422-.1.577-.3,1.129-.448,1.7a19.107,19.107,0,0,0-.418,2.179c-.527,3.542-.885,7.113-1.074,10.695-.274,5.064-.2,10.143-.134,15.216.1,7.1,3.482,13.744,5.128,20.648a17.862,17.862,0,0,1,.567,3.263,21.233,21.233,0,0,1-.433,4.372,71.768,71.768,0,0,0,.87,27.249,5.4,5.4,0,0,0-2.174,5c-3.208.562-6.566,1.114-9.655.094-1.865-.612-3.542-1.776-5.472-2.139-1.492-.274-3.218-.134-4.273-1.219a4.54,4.54,0,0,1-.915-1.741c-3.641-10.6-2.621-22.13-2.418-33.328.109-6.019,0-12.043.229-18.057a139.813,139.813,0,0,1,5.014-31.7c1.393-4.974,2.736-9.948,5.472-14.361A7.5,7.5,0,0,1,290,533.043a8.468,8.468,0,0,1,3.512-.93C296.048,531.839,297.873,531.968,300.41,531.68Z" transform="translate(-130.2 -368.334)" fill="#3f3d56"/>
      <path id="Path_20332" data-name="Path 20332" d="M279.426,633.051a4.556,4.556,0,0,0,.915,1.736c1.055,1.089,2.786.945,4.273,1.224.189.035.378.079.562.129,1.7.453,3.228,1.452,4.9,1.99,3.094.995,6.467.468,9.66-.094a5.412,5.412,0,0,1,2.174-5.009,71.744,71.744,0,0,1-.875-27.244,20.892,20.892,0,0,0,.438-4.372,18.221,18.221,0,0,0-.567-3.263c-1.637-6.909-5.029-13.555-5.128-20.653-.07-5.074-.139-10.152.129-15.216q.294-5.372,1.079-10.695a20.248,20.248,0,0,1,.413-2.179c.154-.562.348-1.119.448-1.7.144-.8.095-1.617.184-2.422.269-2.417,1.721-4.507,2.686-6.74a9.978,9.978,0,0,0,.776-2.9,4.975,4.975,0,0,0-1.084-3.979c-1.706.189-3.084.184-4.576.249-.731.03-1.492.08-2.323.174a8.306,8.306,0,0,0-3.517.93,7.461,7.461,0,0,0-2.273,2.567c-.269.433-.522.87-.766,1.313-2.233,4.064-3.452,8.541-4.706,13.042a139.864,139.864,0,0,0-5.014,31.7c-.254,6.014-.119,12.038-.229,18.062C276.8,610.925,275.785,622.451,279.426,633.051Z" transform="translate(-130.202 -368.328)" opacity="0.05"/>
      <path id="Path_20333" data-name="Path 20333" d="M288.13,534.911v2.617q.035,12.6.065,25.2a99.973,99.973,0,0,0,.358,10.361c.88,8.954,4.154,17.624,3.805,26.588-.249,6.511-.5,13.1.811,19.484.5,2.447,1.224,4.855,1.582,7.327a13.837,13.837,0,0,1-.662,7.382c-.706,1.646-1.9,3.2-1.831,4.974a4.88,4.88,0,0,0,2.353,3.721,11.183,11.183,0,0,0,4.308,1.438,33.069,33.069,0,0,0,5.735.443c2.751-.03,5.885-.632,7.307-2.984a7.1,7.1,0,0,0,.423-5.387c-.055-.209-.109-.413-.169-.617-.468-1.567-1.134-3.074-1.492-4.666a12.988,12.988,0,0,1,.532-7.546c.169-.448.7-1.293,1.179-1.238a20.29,20.29,0,0,0,.995-6.223l.7-14.276a36.809,36.809,0,0,0-.338-9.3c-.5-2.487-1.557-4.855-1.855-7.377a24.4,24.4,0,0,1,.025-4.551,202.093,202.093,0,0,1,3.024-23.245,2.785,2.785,0,0,1,.383-1.1c.328-.458.9-.671,1.3-1.069.846-.826.766-2.174.965-3.343.358-2.109,1.756-3.86,2.835-5.7a20.892,20.892,0,0,0,2.8-9.735,20.424,20.424,0,0,0-.393-4.83c-.04-.214-.09-.428-.139-.642a130.088,130.088,0,0,0-32.4,1.99,2.646,2.646,0,0,0-2.02,1.074,2.691,2.691,0,0,0-.189,1.234Z" transform="translate(-157.247 -367.664)" fill="#3f3d56"/>
      <path id="Path_20338" data-name="Path 20338" d="M308.775,320.1a7.159,7.159,0,0,0,1.288,2.806,17.953,17.953,0,0,1,2.562,8.68,17.416,17.416,0,0,1-.119,2.691c-.04.333-.05.751.239.925a.836.836,0,0,0,.5.065c.338-.03.667-.07.995-.124,5.318-.851,9.973-4.477,15.326-5.392a2.557,2.557,0,0,1-1.368-1.617,7.269,7.269,0,0,1-.323-1.234c-.08-.443-.139-.885-.184-1.318-.338-3.2.149-6.148.328-9.4.2-3.79-4.477-2.542-7.223-2.592a22.762,22.762,0,0,0-6.576.522,7.713,7.713,0,0,0-5.069,3.925A3.98,3.98,0,0,0,308.775,320.1Z" transform="translate(-173.789 -258.648)" fill="#cb8c8e"/>
      <path id="Path_20339" data-name="Path 20339" d="M311.775,347.25a.836.836,0,0,0,.5.065c.338-.03.667-.07.995-.124.458-.428.9-.875,1.323-1.343a29.063,29.063,0,0,1,3.044-3.258,10.565,10.565,0,0,1,6.218-2.219,20.454,20.454,0,0,0,3.373-.189,7.269,7.269,0,0,1-.323-1.234c-.08-.443-.139-.885-.184-1.318a16.687,16.687,0,0,0-1.88-.134,9.039,9.039,0,0,0-2.228-.045,11.377,11.377,0,0,0-3.417,1.443,40.671,40.671,0,0,0-4.581,2.368c-.438.308-.856.647-1.273.995-.567.463-1.129.93-1.7,1.388a17.41,17.41,0,0,1-.119,2.691C311.5,346.654,311.487,347.076,311.775,347.25Z" transform="translate(-172.819 -270.695)" fill="#e3e8f4"/>
      <g id="Group_12817" data-name="Group 12817">
        <path id="Path_20444" data-name="Path 20444" d="M94.184,159.229l3.289-3.856s4.142-.038,5.311,2.21c1.619,3.113,7.473,4.358,10.959,2.864s14.447,3.363,14.447,4.359,3.486,2.491-1.744,7.1-5.232,2.366-8.1,0-5.979-2.49-8.469,0-8.844,2.989-9.59-1.868,2.369-7.6-2.738-6.227S94.184,159.229,94.184,159.229Z" fill="#c52b4f"/>
        <path id="Path_20470" data-name="Path 20470" d="M94.184,159.229l3.289-3.856s4.142-.038,5.311,2.21c1.619,3.113,7.473,4.358,10.959,2.864s14.447,3.363,14.447,4.359,3.486,2.491-1.744,7.1-5.232,2.366-8.1,0-5.979-2.49-8.469,0-8.844,2.989-9.59-1.868,2.369-7.6-2.738-6.227S94.184,159.229,94.184,159.229Z" transform="translate(3.544 -4)" fill="#c21f45"/>
        <path id="Path_20334" data-name="Path 20334" d="M514.155,605.048c-5.352,9.421-10.725,18.862-14.982,28.826-3.457,8.083-6.292,16.694-12.093,23.3-5.432,6.183-12.933,10.043-20.3,13.759l6.6-5.81c6.621-5.845,13.381-11.854,17.584-19.619,2.288-4.228,3.741-8.849,5.472-13.351A122.433,122.433,0,0,1,514.652,600a90.7,90.7,0,0,1,6.865-8C519.831,596.477,516.533,600.869,514.155,605.048Z" transform="translate(-444.348 -398.648)" fill="#c52b4f"/>
        <path id="Path_20335" data-name="Path 20335" d="M425.307,736.315a39.965,39.965,0,0,1-5.71,9.421c-.209-1.642.915-3.114,1.806-4.507a38.555,38.555,0,0,0,3.572-8.2c.905-2.612,1.746-6.213,3.671-8.277C429.629,728.292,426.8,733.271,425.307,736.315Z" transform="translate(-328.195 -465.365)" fill="#c52b4f"/>
        <path id="Path_20336" data-name="Path 20336" d="M378.894,596.582c-.468,2.487-.741,4.974-1.368,7.407a52.819,52.819,0,0,1-2.263,6.417L364.777,636.54c.09-3.552,1.99-6.765,3.2-10.1,1.492-4.094,2.03-8.456,3.248-12.665.995-3.412,2.437-6.67,3.482-10.068,1.453-4.79,2.064-9.794,3.2-14.669a107.263,107.263,0,0,1,3.845-12.436,12.125,12.125,0,0,1,3.029-5.243c1.537-1.328,4.114-1.706,5.566-.269,2.044,2.024-1.055,3.293-2.074,4.611A49.455,49.455,0,0,0,378.9,596.6Z" transform="translate(-263.123 -387.68)" fill="#c52b4f"/>
      </g>
      <path id="Path_20340" data-name="Path 20340" d="M277.45,534.906v2.617c2.069.06,4.183.363,6.243.5,1.935.139,3.875.144,5.815.119a16.88,16.88,0,0,0,4.507-.5c1.06-.308,2.054-.816,3.109-1.134a14.973,14.973,0,0,1,6.193-.288c1.711.2,3.437.5,5.143.652a6.9,6.9,0,0,0,3.283-.338,6.089,6.089,0,0,0,.846-.468,11.568,11.568,0,0,1,1.313-.761,7.776,7.776,0,0,1,3.955-.328A4.974,4.974,0,0,0,316.772,531c-1.706.189-3.084.184-4.576.249-.04-.214-.09-.428-.139-.642a130.093,130.093,0,0,0-32.4,1.99,2.646,2.646,0,0,0-2.02,1.074A2.691,2.691,0,0,0,277.45,534.906Z" transform="translate(-146.567 -367.659)" opacity="0.1"/>
      <path id="Path_20341" data-name="Path 20341" d="M300.132,341.279a4.385,4.385,0,0,1,2.93,1.234,1.493,1.493,0,0,1,.373.8,6.7,6.7,0,0,1-.269,1.373,3.209,3.209,0,0,0,.458,1.711,13.315,13.315,0,0,0,2.706,4.134c.5.463,1.065.846,1.567,1.3a13.866,13.866,0,0,1,1.567,1.761,11.434,11.434,0,0,1,2.512,4.328c.672,2.84,2.069,5.521,2.985,8.3a17.946,17.946,0,0,1,.995,8.605c-.234,1.363-.706,2.671-1.035,4.014-.527,2.154-.677,4.382-1.234,6.526-.353,1.338-.861,2.631-1.244,3.979a21.678,21.678,0,0,0-.662,8.9c.373,2.721-.254,5.616.846,8.128a30.666,30.666,0,0,0,1.492,2.706A37.769,37.769,0,0,1,316,413.052l3.069,7.243a42.052,42.052,0,0,1,1.607,4.178c1.278,4.159,1.283,8.591,1.1,12.933a.547.547,0,0,0,.085.388c.094.1.308.07.313-.065.04.249.2.681.234.93-2.612,1.134-5.825-.582-8.426.577-.756.338-1.4.9-2.159,1.229a6.845,6.845,0,0,1-3.283.343c-3.8-.313-7.69-1.492-11.331-.368-1.06.323-2.049.831-3.109,1.139a16.937,16.937,0,0,1-4.512.5c-1.94.03-3.88.025-5.815-.119-4.163-.3-8.536-1.214-12.371.438-1.239-.91-1.333-2.323-1.383-3.855q-.139-4.328-.279-8.65l-1.03-31.811a31.838,31.838,0,0,1,.244-6.566c.7-3.94,2.855-7.461,4.974-10.839l9.894-15.918c.657-1.055,0-2.234-.453-3.393A21.967,21.967,0,0,1,282.1,356.2a4.632,4.632,0,0,1,.731-3.726,15.941,15.941,0,0,1,1.766-1.313,8.216,8.216,0,0,0,1.821-2.542,16.415,16.415,0,0,1,5.815-6.059A12.3,12.3,0,0,1,300.132,341.279Z" transform="translate(-146.676 -272.573)" fill="#3f3d56"/>
      <path id="Path_20342" data-name="Path 20342" d="M340.578,369.335c3.517.97,5.7,4.542,6.661,8.058a30.457,30.457,0,0,1-.169,15.132,84.862,84.862,0,0,1-5.3,14.326,34.389,34.389,0,0,1-1.632,3.333,15.963,15.963,0,0,1-7.3,6.631,13.49,13.49,0,0,1-9.784.433,5.75,5.75,0,0,1-1.641-.836c-1.761-1.353-2.034-3.86-2.164-6.079l-.443-7.775a3.915,3.915,0,0,1,.06-1.229,4.476,4.476,0,0,1,.9-1.492,18.594,18.594,0,0,0,3.184-6.327,32.186,32.186,0,0,1,1.388-4.8c.418-.915.995-1.751,1.448-2.651a25.354,25.354,0,0,0,1.816-6.233q.612-2.776,1.462-5.5a9.262,9.262,0,0,1,1.268-2.82c1.368-1.85,3.8-2.517,6.044-2.984a6.964,6.964,0,0,1,3.273-.159,7.234,7.234,0,0,1,3.059,2.184" transform="translate(-197.328 -286.194)" opacity="0.1"/>
      <path id="Path_20343" data-name="Path 20343" d="M341.578,368.335c3.517.97,5.7,4.542,6.661,8.058a30.455,30.455,0,0,1-.169,15.132,84.854,84.854,0,0,1-5.3,14.326,34.415,34.415,0,0,1-1.632,3.333,15.962,15.962,0,0,1-7.3,6.631,13.49,13.49,0,0,1-9.784.433,5.748,5.748,0,0,1-1.642-.836c-1.761-1.353-2.034-3.86-2.164-6.079l-.443-7.775a3.913,3.913,0,0,1,.06-1.229,4.476,4.476,0,0,1,.9-1.492,18.6,18.6,0,0,0,3.184-6.327,32.177,32.177,0,0,1,1.388-4.8c.418-.915.995-1.751,1.448-2.651a25.355,25.355,0,0,0,1.816-6.233q.612-2.776,1.462-5.5a9.263,9.263,0,0,1,1.268-2.82c1.368-1.85,3.8-2.517,6.044-2.985a6.965,6.965,0,0,1,3.273-.159,7.235,7.235,0,0,1,3.059,2.184" transform="translate(-198.826 -285.69)" fill="#3f3d56"/>
      <path id="Path_20344" data-name="Path 20344" d="M411.548,402.682a11.715,11.715,0,0,0,.657-8.411c-1.95.5-2.487,3.373-4.477,3.885-.293.075-.607.09-.905.154a5.109,5.109,0,0,0-3.1,2.736,14.719,14.719,0,0,0-2.069,6.288,10.53,10.53,0,0,0,1.492,6.392c-.05-.075,3.482-3.7,3.78-4.069q.93-1.089,1.821-2.223a15.95,15.95,0,0,0,1.676-2.253c.169-.318.2-.686.353-1.025C411.01,403.651,411.3,403.174,411.548,402.682Z" transform="translate(-303.108 -299.276)" fill="#cb8c8e"/>
      <path id="Path_20345" data-name="Path 20345" d="M302.378,438.095a21.732,21.732,0,0,0,6.183,12.62,3.73,3.73,0,0,0,2.776,1.388c1.149-.119,1.94-1.164,2.761-1.99,1.492-1.492,3.482-2.383,5.138-3.686a26.2,26.2,0,0,0,2.427-2.273,56.518,56.518,0,0,0,6.835-7.874,44.9,44.9,0,0,1,3.343-4.855c1.03-1.169,2.268-2.134,3.353-3.248a7.791,7.791,0,0,0,2.3-3.979c.274-1.622,1.99-2.676,3.069-3.92a13.808,13.808,0,0,0,3.009-11.53,2.646,2.646,0,0,0-1.373-2.134,2.224,2.224,0,0,0-1.025-.065c-2.1.293-3.656,2.034-5.014,3.666A30.667,30.667,0,0,0,333.6,413.6a30.038,30.038,0,0,0-3.154,8.9c-.433,1.8-2.224,3.124-3.512,4.447L323.7,430.26c-.771.791-1.542,1.587-2.388,2.3a31.033,31.033,0,0,1-7.859,4.477,9.972,9.972,0,0,0-1.094-2.547A3.308,3.308,0,0,0,310.128,433c-1.283-.164-2.457.686-3.482,1.492l-3.805,2.985C302.627,437.647,302.348,437.836,302.378,438.095Z" transform="translate(-184.871 -305.43)" fill="#fbbebe"/>
      <path id="Path_20346" data-name="Path 20346" d="M368.928,409.108a5.5,5.5,0,0,0-1.089,1.721,11.3,11.3,0,0,0-1.109,5.616,16.774,16.774,0,0,0,.686,3.069l1.184,4.074a189.85,189.85,0,0,0,6.173,18.743c2.044-2.651,5.621-3.452,8.526-5.109a2.4,2.4,0,0,0,.751-.582,2.139,2.139,0,0,0,.373-1.273,9.516,9.516,0,0,0-.786-3.552c-1.811-4.86-4.323-9.605-4.616-14.779a27.8,27.8,0,0,0-.184-2.88,8.167,8.167,0,0,0-3.83-5.521A5.348,5.348,0,0,0,368.928,409.108Z" transform="translate(-257.474 -306.128)" opacity="0.1"/>
      <path id="Path_20347" data-name="Path 20347" d="M367.928,406.806a5.556,5.556,0,0,0-1.089,1.721,11.3,11.3,0,0,0-1.109,5.616,16.686,16.686,0,0,0,.686,3.109l1.184,4.074a189.852,189.852,0,0,0,6.173,18.743c2.044-2.646,5.621-3.452,8.526-5.109a2.386,2.386,0,0,0,.751-.577,2.164,2.164,0,0,0,.373-1.273,9.52,9.52,0,0,0-.786-3.557c-1.811-4.86-4.323-9.6-4.616-14.779a27.618,27.618,0,0,0-.184-2.875,8.163,8.163,0,0,0-3.83-5.526A5.326,5.326,0,0,0,367.928,406.806Z" transform="translate(-255.977 -304.982)" fill="#c52b4f"/>
      <path id="Path_20348" data-name="Path 20348" d="M370.439,335.5A6.882,6.882,0,0,0,369,339.543a26.481,26.481,0,0,0,.726,11.182,13.461,13.461,0,0,0,7.088,8.347c-4.815.781-10.536,1.268-13.8-2.363a10.5,10.5,0,0,0-1.965-2.069c-3.457-2.179-7.844,3.567-11.6,1.935-2.487-1.074-2.666-4.437-2.487-7.123l.681-9.949c.348-5.079.791-10.446,3.7-14.6,2.626-3.766,6.929-6.029,11.3-7.461,3.144-.995,6.646-1.646,9.7-.388,3.9,1.6,11.441,8,11.4,12.729C383.671,336.807,373.722,332.032,370.439,335.5Z" transform="translate(-246.962 -260.118)" fill="#3f3d56"/>
      <path id="Path_20349" data-name="Path 20349" d="M381.509,421.19a4.976,4.976,0,0,1-1.652-.214c-.846-.313-1.492-1.1-2.4-1.229-.458-.065-1.045,0-1.244-.433a1.721,1.721,0,0,1-.065-.622c-.07-1.209-1.587-1.627-2.612-2.273a7.647,7.647,0,0,1-1.7-1.632l-3.532-4.173a2.646,2.646,0,0,0-1.343-1.02,2.4,2.4,0,0,0-1.746.5,13.644,13.644,0,0,0-6.029,12.655,2.144,2.144,0,0,0,.259.97c.552.866,1.85.657,2.83.965,1.875.587,2.447,3.019,4.054,4.148.721.5,1.612.711,2.313,1.229a15.735,15.735,0,0,1,1.875,2.124,11.843,11.843,0,0,0,3.775,2.487l4.163,2.029a16.346,16.346,0,0,0,2.552,1.065,16.076,16.076,0,0,0,4.636.393l3.049-.04a1.8,1.8,0,0,0,.995-.2,1.666,1.666,0,0,0,.443-.5,10.943,10.943,0,0,0,1.328-8.163c-.463-2.3-1.552-5.472-3.189-7.218C386.851,420.539,383.478,421.23,381.509,421.19Z" transform="translate(-260.997 -306.97)" fill="#3f3d56"/>
      <path id="Path_20350" data-name="Path 20350" d="M302.331,286.85a2.263,2.263,0,0,0-1.149-2.418l-3.78-2.84.776-1.129-1.457-1.249a1.059,1.059,0,0,1,1.074-.418c-.229-1.537,1.084-2.835,2.333-3.751a16.914,16.914,0,0,1,8.586-3.616c1.527-.1,3.059.119,4.586,0,2.059-.129,4.059-.826,6.123-.905s4.382.731,5.248,2.587a24.516,24.516,0,0,1,.7,2.557c.622,1.86,2.263,3.149,3.661,4.527s2.7,3.223,2.308,5.143a6.776,6.776,0,0,1-.711,1.766l-7.71,14.888a3.427,3.427,0,0,0-2.592-1.786c-1.268-.149-2.487.418-3.77.577a5.969,5.969,0,0,1-5.128-1.99c-1.7-1.96-2.114-6.964-5.069-7.461-1.045-.179-2.716,1.139-3.626.617C301.66,291.362,302.311,287.955,302.331,286.85Z" transform="translate(-169.642 -237.082)" fill="#3f3d56"/>
      <g id="Group_12650" data-name="Group 12650" transform="translate(101.142 56.439)" opacity="0.1">
        <path id="Path_20351" data-name="Path 20351" d="M356.41,357.753a13.51,13.51,0,0,1-7.088-8.352,26.416,26.416,0,0,1-.726-11.182,6.849,6.849,0,0,1,1.438-4.039c3.283-3.482,13.232,1.3,13.321-5.691.055-4.034-5.432-9.277-9.451-11.729a9.124,9.124,0,0,1,1.06.353c3.9,1.6,11.441,8,11.4,12.729-.09,6.994-10.038,2.224-13.321,5.7a6.871,6.871,0,0,0-1.438,4.039,26.456,26.456,0,0,0,.726,11.177,13.483,13.483,0,0,0,7.088,8.352c-4.248.686-9.2,1.144-12.545-1.249C349.809,358.629,353.3,358.255,356.41,357.753Z" transform="translate(-330.683 -316.76)"/>
        <path id="Path_20352" data-name="Path 20352" d="M406.593,389.744a4.414,4.414,0,0,1,.96.866c-3.049.2-6.516,3.751-9.57,2.422a3.432,3.432,0,0,1-1.353-1.065C399.973,391.839,403.624,387.874,406.593,389.744Z" transform="translate(-396.63 -353.188)"/>
      </g>
      <g id="Group_12651" data-name="Group 12651" transform="translate(126.949 39.467)" opacity="0.1">
        <path id="Path_20353" data-name="Path 20353" d="M363.05,282.963c.075-.109.154-.219.234-.323a2.788,2.788,0,0,0,.025.343A1.116,1.116,0,0,0,363.05,282.963Z" transform="translate(-361.488 -282.64)"/>
        <path id="Path_20354" data-name="Path 20354" d="M297.08,286.447a1.06,1.06,0,0,1,1.074-.418,2.412,2.412,0,0,1,.1-1.119l1.03.88-.776,1.124,3.78,2.845a2.263,2.263,0,0,1,1.149,2.417c0,1.1-.672,4.512.4,5.123.905.522,2.582-.8,3.621-.617,2.955.5,3.368,5.472,5.069,7.461a5.969,5.969,0,0,0,5.128,1.99c1.268-.154,2.487-.721,3.771-.572a3.447,3.447,0,0,1,2.6,1.786q3.845-7.432,7.69-14.858v.109a6.964,6.964,0,0,1-.716,1.766l-7.7,14.858a3.447,3.447,0,0,0-2.6-1.786c-1.268-.149-2.487.418-3.771.577a5.969,5.969,0,0,1-5.128-1.99c-1.7-1.96-2.114-6.964-5.069-7.461-1.04-.179-2.716,1.139-3.621.617-1.074-.612-.423-4.019-.4-5.124a3.03,3.03,0,0,0-.219-1.492,2.985,2.985,0,0,0-.93-.94l-3.78-2.84.776-1.129Z" transform="translate(-297.08 -283.781)"/>
      </g>
      <path id="Path_20355" data-name="Path 20355" d="M276.436,492.675c.5,2.124.811,4.293,1.492,6.367.3.935.667,1.845.96,2.781.264.851.463,1.711.667,2.577l.811,3.482a1.587,1.587,0,0,1-1.234-.7,4.71,4.71,0,0,1-.612-1.333l-1.358-4.039-.995-2.985c-1.413-4.2-2.83-8.416-3.9-12.724-.269-1.065-.5-2.129-.731-3.2-.09-.413-.741-2.716-.075-2.522.473.134,1.273,2.233,1.492,2.691.5.915.905,1.85,1.308,2.8a41.43,41.43,0,0,1,2.179,6.8Z" transform="translate(-105.888 -342.545)" opacity="0.1"/>
      <path id="Path_20356" data-name="Path 20356" d="M328.076,392.437s2.248-.811,2.8.154c0,0-4.089,1.492-4.915,3.641,0,0-1.055-1.084.388-2.462l.269-2.02Z" transform="translate(-183.474 -298.009)" fill="#00a66c"/>
      <path id="Path_20357" data-name="Path 20357" d="M333.415,385.834s-.124-1.025.393-1.134a3.171,3.171,0,0,1,3.457,3.979c-.562,3.885-4.611,2.427-4.611,2.427l-1.776-2.069s-.378-2.741,2.109-3.4Z" transform="translate(-192.544 -294.455)" fill="#d7385e"/>
      <path id="Path_20358" data-name="Path 20358" d="M329.436,382.76s3.054,1.542,1.572,5.417l-1.149-.667S328.422,384.148,329.436,382.76Z" transform="translate(-185.745 -293.49)" opacity="0.1"/>
      <path id="Path_20359" data-name="Path 20359" d="M329.189,382.6s3.049,1.542,1.567,5.417l-.89.522S328.169,383.988,329.189,382.6Z" transform="translate(-185.388 -293.41)" fill="#d7385e"/>
      <path id="Path_20360" data-name="Path 20360" d="M335.75,390.541a2.646,2.646,0,0,1-.935,1.353c-.716.5.711,1.646.711,1.646s1.93,2.194,3.756,1.124c1.089-1.835.269-2.089.269-2.089S337.272,390.074,335.75,390.541Z" transform="translate(-196.933 -297.371)" opacity="0.1"/>
      <path id="Path_20361" data-name="Path 20361" d="M335.235,390.751a2.646,2.646,0,0,1-.935,1.353c-.711.5.716,1.646.716,1.646s1.925,2.194,3.756,1.124.269-2.084.269-2.084S336.783,390.284,335.235,390.751Z" transform="translate(-196.493 -297.478)" fill="#d7385e"/>
      <path id="Path_20362" data-name="Path 20362" d="M328.916,381.233s2.258.786,2.079,1.885c0,0-4.119-1.413-6.113-.264,0,0-.134-1.492,1.85-1.671l1.492-1.4Z" transform="translate(-183.249 -291.992)" fill="#5f3839"/>
      <path id="Path_20363" data-name="Path 20363" d="M329.931,372.5s.547-.875.995-.637a3.178,3.178,0,0,1,.189,5.258c-2.87,2.656-5.114-.995-5.114-.995l-.05-2.726s1.433-2.368,3.78-1.313Z" transform="translate(-185.22 -287.99)" fill="#d7385e"/>
      <path id="Path_20364" data-name="Path 20364" d="M326.125,373.49s1.4,3.119-2.194,5.2l-.473-1.239S324.473,373.933,326.125,373.49Z" transform="translate(-177.931 -288.831)" opacity="0.1"/>
      <path id="Path_20365" data-name="Path 20365" d="M326.375,373.5s1.4,3.119-2.194,5.2l-1.02-.154S324.709,373.938,326.375,373.5Z" transform="translate(-178.032 -288.837)" fill="#d7385e"/>
      <path id="Path_20366" data-name="Path 20366" d="M335.254,373.41a2.666,2.666,0,0,1-1.582.468c-.875-.055-.5,1.726-.5,1.726s.119,2.92,2.214,3.238c1.99-.741,1.522-1.452,1.522-1.452S336.732,374.007,335.254,373.41Z" transform="translate(-193.288 -288.792)" fill="#d7385e" opacity="0.1"/>
      <path id="Path_20367" data-name="Path 20367" d="M335.437,373.51a2.651,2.651,0,0,1-1.582.468c-.876-.055-.5,1.726-.5,1.726s.114,2.92,2.209,3.238,1.522-1.452,1.522-1.452S336.914,374.107,335.437,373.51Z" transform="translate(-193.581 -288.842)" fill="#d7385e"/>
      <path id="Path_20368" data-name="Path 20368" d="M309.549,384.34s-.716-.627-1.109.2l.333,1.85,2.054,18.325,1.313,2.4Z" transform="translate(-156.207 -294.17)" fill="#00a66c"/>
      <path id="Path_20369" data-name="Path 20369" d="M281.3,277.62l8.605,27.955-.781.433-8.536-28.2Z" transform="translate(-134.048 -191.713)" fill="#00a66c"/>
      <path id="Path_20370" data-name="Path 20370" d="M310.1,401.48s1.93,7.3,4.059,10.207a7.626,7.626,0,0,1,1.726,5.322l-.7.214-5.72-15.236Z" transform="translate(-160.494 -302.899)" fill="#00a66c"/>
      <path id="Path_20371" data-name="Path 20371" d="M283.59,290.19l12.277,21.379-.587.318-12.66-21.544Z" transform="translate(-141.017 -198.03)" fill="#00a66c"/>
      <path id="Path_20372" data-name="Path 20372" d="M282.662,301.54l15.291,15.938-.458.592L282.01,301.9Z" transform="translate(-142.8 -203.735)" fill="#00a66c"/>
      <path id="Path_20373" data-name="Path 20373" d="M312.38,401.545s.2-.9.89-.726S327.472,416,327.472,416l-.572.448Z" transform="translate(-173.498 -302.556)" fill="#00a66c"/>
      <path id="Path_20374" data-name="Path 20374" d="M311.816,381.223s2.308.627,2.2,1.736c0,0-4.2-1.124-6.113.159,0,0-.239-1.492,1.731-1.8l1.383-1.492Z" transform="translate(-157.813 -292.018)" fill="#00a66c"/>
      <path id="Path_20375" data-name="Path 20375" d="M313.444,372.53s.5-.91.97-.7a3.172,3.172,0,0,1,.557,5.228c-2.676,2.845-5.173-.657-5.173-.657l-.264-2.716s1.263-2.457,3.681-1.572Z" transform="translate(-160.733 -287.981)" fill="#d7385e"/>
      <path id="Path_20376" data-name="Path 20376" d="M309.49,373.09s1.617,3.014-1.826,5.337l-.557-1.2S307.864,373.642,309.49,373.09Z" transform="translate(-153.273 -288.631)" opacity="0.1"/>
      <path id="Path_20377" data-name="Path 20377" d="M309.693,373.08s1.617,3.014-1.826,5.337l-1.03-.08S308.061,373.632,309.693,373.08Z" transform="translate(-153.341 -288.626)" fill="#d7385e"/>
      <path id="Path_20378" data-name="Path 20378" d="M318.416,373.88a2.661,2.661,0,0,1-1.547.557c-.875,0-.358,1.756-.358,1.756s.318,2.9,2.427,3.079c1.945-.876,1.418-1.557,1.418-1.557S319.928,374.372,318.416,373.88Z" transform="translate(-168.427 -289.028)" opacity="0.1"/>
      <path id="Path_20379" data-name="Path 20379" d="M318.539,374a2.686,2.686,0,0,1-1.547.577c-.876,0-.358,1.756-.358,1.756s.318,2.9,2.427,3.074,1.418-1.552,1.418-1.552S320.051,374.5,318.539,374Z" transform="translate(-168.654 -289.088)" fill="#d7385e"/>
      <path id="Path_20380" data-name="Path 20380" d="M323.632,372.593s2.308.627,2.2,1.736c0,0-4.2-1.124-6.113.154,0,0-.244-1.492,1.731-1.791l1.383-1.492Z" transform="translate(-175.514 -287.68)" fill="#00a66c"/>
      <path id="Path_20381" data-name="Path 20381" d="M325.264,363.92s.5-.91.97-.7a3.172,3.172,0,0,1,.557,5.228c-2.676,2.845-5.173-.657-5.173-.657l-.264-2.716s1.263-2.457,3.681-1.572Z" transform="translate(-178.433 -283.654)" fill="#d7385e"/>
      <path id="Path_20382" data-name="Path 20382" d="M321.31,364.48s1.617,3.014-1.826,5.337l-.557-1.2S319.664,365.032,321.31,364.48Z" transform="translate(-170.973 -284.303)" opacity="0.1"/>
      <path id="Path_20383" data-name="Path 20383" d="M321.516,364.47s1.612,3.014-1.826,5.337l-1.03-.085S319.885,365.022,321.516,364.47Z" transform="translate(-171.044 -284.299)" fill="#d7385e"/>
      <path id="Path_20384" data-name="Path 20384" d="M330.233,365.27a2.641,2.641,0,0,1-1.542.572c-.875,0-.358,1.756-.358,1.756s.318,2.9,2.427,3.079c1.94-.88,1.418-1.557,1.418-1.557S331.75,365.762,330.233,365.27Z" transform="translate(-186.129 -284.701)" opacity="0.1"/>
      <path id="Path_20385" data-name="Path 20385" d="M330.354,365.38a2.642,2.642,0,0,1-1.542.572c-.876,0-.358,1.756-.358,1.756s.318,2.9,2.427,3.079,1.418-1.557,1.418-1.557S331.871,365.872,330.354,365.38Z" transform="translate(-186.354 -284.756)" fill="#d7385e"/>
      <path id="Path_20386" data-name="Path 20386" d="M331,385.306s2.248-.811,2.8.154c0,0-4.089,1.492-4.92,3.641,0,0-1.055-1.084.388-2.462l.269-2.02Z" transform="translate(-187.851 -294.425)" fill="#00a66c"/>
      <path id="Path_20387" data-name="Path 20387" d="M336.276,378.674s-.124-1.025.393-1.134a3.193,3.193,0,0,1,3.482,3.979c-.532,3.885-4.616,2.427-4.616,2.427l-1.776-2.069s-.373-2.741,2.114-3.4Z" transform="translate(-196.857 -290.857)" fill="#d7385e"/>
      <path id="Path_20388" data-name="Path 20388" d="M332.383,375.64s3.054,1.542,1.567,5.417l-1.144-.667S331.388,377.028,332.383,375.64Z" transform="translate(-190.159 -289.912)" opacity="0.1"/>
      <path id="Path_20389" data-name="Path 20389" d="M332.107,375.48s3.054,1.542,1.572,5.417l-.89.522S331.093,376.868,332.107,375.48Z" transform="translate(-189.764 -289.833)" fill="#d7385e"/>
      <path id="Path_20390" data-name="Path 20390" d="M338.674,383.421a2.686,2.686,0,0,1-.935,1.353c-.716.5.711,1.647.711,1.647s1.93,2.194,3.756,1.124c1.084-1.831.269-2.089.269-2.089S340.2,382.954,338.674,383.421Z" transform="translate(-201.31 -293.794)" opacity="0.1"/>
      <path id="Path_20391" data-name="Path 20391" d="M338.132,383.631a2.671,2.671,0,0,1-.935,1.358c-.716.5.711,1.641.711,1.641s1.93,2.194,3.756,1.129.269-2.089.269-2.089S339.654,383.164,338.132,383.631Z" transform="translate(-200.822 -293.9)" fill="#d7385e"/>
      <path id="Path_20392" data-name="Path 20392" d="M338.261,397.556s2.248-.811,2.8.159c0,0-4.084,1.492-4.915,3.641,0,0-1.055-1.089.388-2.462l.269-2.025Z" transform="translate(-198.717 -300.582)" fill="#00a66c"/>
      <path id="Path_20393" data-name="Path 20393" d="M343.6,390.92s-.124-1.025.393-1.129,4.014.09,3.452,3.979-4.611,2.432-4.611,2.432l-1.776-2.074s-.373-2.736,2.114-3.4Z" transform="translate(-207.787 -297.014)" fill="#d7385e"/>
      <path id="Path_20394" data-name="Path 20394" d="M339.614,387.88s3.054,1.542,1.567,5.422l-1.144-.667S338.594,389.268,339.614,387.88Z" transform="translate(-200.981 -296.064)" opacity="0.1"/>
      <path id="Path_20395" data-name="Path 20395" d="M339.349,387.72s3.054,1.542,1.572,5.417l-.89.522S338.33,389.108,339.349,387.72Z" transform="translate(-200.607 -295.983)" fill="#d7385e"/>
      <path id="Path_20396" data-name="Path 20396" d="M345.889,395.661a2.681,2.681,0,0,1-.93,1.358c-.716.5.711,1.641.711,1.641s1.93,2.194,3.756,1.129c1.084-1.835.269-2.089.269-2.089S347.382,395.194,345.889,395.661Z" transform="translate(-212.121 -299.946)" opacity="0.1"/>
      <path id="Path_20397" data-name="Path 20397" d="M345.382,395.881a2.647,2.647,0,0,1-.935,1.353c-.716.5.711,1.646.711,1.646s1.93,2.194,3.756,1.124.269-2.089.269-2.089S346.9,395.414,345.382,395.881Z" transform="translate(-211.679 -300.056)" fill="#d7385e"/>
      <path id="Path_20398" data-name="Path 20398" d="M339.169,401.666s2.248-.811,2.8.159c0,0-4.089,1.492-4.915,3.641,0,0-1.06-1.089.383-2.462l.274-2.025Z" transform="translate(-200.083 -302.648)" fill="#00a66c"/>
      <path id="Path_20399" data-name="Path 20399" d="M344.507,395.029s-.124-1.02.393-1.129,4.014.09,3.457,3.979-4.611,2.432-4.611,2.432l-1.776-2.069s-.378-2.741,2.109-3.4Z" transform="translate(-209.152 -299.079)" fill="#d7385e"/>
      <path id="Path_20400" data-name="Path 20400" d="M340.538,392s3.054,1.537,1.562,5.417l-1.149-.667S339.524,393.383,340.538,392Z" transform="translate(-202.363 -298.134)" opacity="0.1"/>
      <path id="Path_20401" data-name="Path 20401" d="M340.285,391.83s3.049,1.542,1.567,5.417l-.89.527S339.251,393.218,340.285,391.83Z" transform="translate(-202.001 -298.049)" fill="#d7385e"/>
      <path id="Path_20402" data-name="Path 20402" d="M346.84,399.771a2.671,2.671,0,0,1-.935,1.358c-.716.5.711,1.642.711,1.642s1.93,2.2,3.756,1.129c1.089-1.835.269-2.089.269-2.089S348.362,399.3,346.84,399.771Z" transform="translate(-213.54 -302.01)" opacity="0.1"/>
      <path id="Path_20403" data-name="Path 20403" d="M346.3,399.991a2.647,2.647,0,0,1-.935,1.353c-.716.5.716,1.647.716,1.647s1.925,2.194,3.751,1.124.274-2.089.274-2.089S347.816,399.524,346.3,399.991Z" transform="translate(-213.053 -302.122)" fill="#d7385e"/>
      <path id="Path_20404" data-name="Path 20404" d="M317.146,398.981s2.248-.816,2.8.154c0,0-4.089,1.492-4.915,3.641,0,0-1.055-1.084.388-2.462l.269-2.025Z" transform="translate(-167.107 -301.295)" fill="#00a66c"/>
      <path id="Path_20405" data-name="Path 20405" d="M322.485,392.339s-.124-1.02.393-1.129a3.171,3.171,0,0,1,3.457,3.979c-.562,3.885-4.611,2.432-4.611,2.432l-1.776-2.069s-.378-2.741,2.109-3.4Z" transform="translate(-176.177 -297.726)" fill="#d7385e"/>
      <path id="Path_20406" data-name="Path 20406" d="M318.538,389.31s3.044,1.542,1.552,5.417l-1.149-.667S317.523,390.7,318.538,389.31Z" transform="translate(-169.409 -296.783)" opacity="0.1"/>
      <path id="Path_20407" data-name="Path 20407" d="M318.269,389.15s3.049,1.537,1.567,5.417l-.89.5S317.225,390.538,318.269,389.15Z" transform="translate(-169.031 -296.702)" fill="#d7385e"/>
      <path id="Path_20408" data-name="Path 20408" d="M324.82,397.081a2.651,2.651,0,0,1-.935,1.358c-.716.5.711,1.646.711,1.646s1.93,2.194,3.756,1.124c1.089-1.835.269-2.089.269-2.089S326.342,396.614,324.82,397.081Z" transform="translate(-180.566 -300.659)" opacity="0.1"/>
      <path id="Path_20409" data-name="Path 20409" d="M324.236,397.3a2.647,2.647,0,0,1-.935,1.353c-.711.5.716,1.646.716,1.646s1.925,2.194,3.756,1.124.269-2.089.269-2.089S325.728,396.834,324.236,397.3Z" transform="translate(-180.021 -300.769)" fill="#d7385e"/>
      <path id="Path_20410" data-name="Path 20410" d="M319.616,385.511s2.253-.816,2.8.154c0,0-4.089,1.492-4.915,3.641,0,0-1.055-1.084.388-2.462l.269-2.025Z" transform="translate(-170.806 -294.526)" fill="#00a66c"/>
      <path id="Path_20411" data-name="Path 20411" d="M324.89,378.832s-.124-.995.393-1.129,4.019.095,3.482,3.979-4.611,2.432-4.611,2.432l-1.776-2.069s-.373-2.741,2.114-3.4Z" transform="translate(-179.81 -290.936)" fill="#d7385e"/>
      <path id="Path_20412" data-name="Path 20412" d="M320.978,375.84s3.049,1.537,1.567,5.417l-1.149-.667S319.959,377.228,320.978,375.84Z" transform="translate(-173.073 -290.013)" opacity="0.1"/>
      <path id="Path_20413" data-name="Path 20413" d="M320.725,375.68s3.054,1.537,1.567,5.417l-.885.522S319.7,377.068,320.725,375.68Z" transform="translate(-172.715 -289.932)" fill="#d7385e"/>
      <path id="Path_20414" data-name="Path 20414" d="M327.29,383.611a2.671,2.671,0,0,1-.935,1.358c-.716.5.711,1.646.711,1.646s1.93,2.194,3.756,1.124c1.089-1.835.269-2.089.269-2.089S328.817,383.144,327.29,383.611Z" transform="translate(-184.265 -293.889)" opacity="0.1"/>
      <path id="Path_20415" data-name="Path 20415" d="M326.742,383.836a2.646,2.646,0,0,1-.935,1.353c-.716.5.711,1.646.711,1.646s1.93,2.194,3.756,1.124.269-2.089.269-2.089S328.264,383.394,326.742,383.836Z" transform="translate(-183.767 -294.005)" fill="#d7385e"/>
      <path id="Path_20416" data-name="Path 20416" d="M315.922,406.58s-6.163.681-9.511,11.4,7.183,2.7,7.183,2.7,2.776.557,3.208-5.039A22.82,22.82,0,0,0,315.922,406.58Z" transform="translate(-159.621 -305.461)" fill="#fbbebe"/>
      <rect id="Rectangle_4348" data-name="Rectangle 4348" width="2.298" height="0.681" rx="0.341" transform="translate(157.129 110.402) rotate(-156.08)" fill="#e3e8f4"/>
      <path id="Path_20417" data-name="Path 20417" d="M249.713,329.573l.995-.905c3.572-3.283,5.934-5.412,5.934-8.068a3.775,3.775,0,0,0-3.82-3.84,4.1,4.1,0,0,0-3.124,1.467,4.089,4.089,0,0,0-3.124-1.467,3.775,3.775,0,0,0-3.815,3.84c0,2.656,2.358,4.785,5.934,8.068Z" transform="translate(-68.038 -260.32)" fill="#d7385e" opacity="0.1"/>
      <path id="Path_20418" data-name="Path 20418" d="M221.788,216.113l.995-.91c3.577-3.278,5.939-5.412,5.939-8.063a3.775,3.775,0,0,0-3.82-3.84,4.1,4.1,0,0,0-3.124,1.467,4.1,4.1,0,0,0-3.124-1.467,3.775,3.775,0,0,0-3.815,3.84c0,2.651,2.358,4.785,5.934,8.063Z" transform="translate(-26.23 -203.299)" fill="#d7385e" opacity="0.1"/>
      <path id="Path_20419" data-name="Path 20419" d="M431.243,270.5l.995-.91c3.576-3.278,5.934-5.412,5.934-8.063a3.776,3.776,0,0,0-3.815-3.84,4.1,4.1,0,0,0-3.124,1.467,4.1,4.1,0,0,0-3.124-1.467,3.775,3.775,0,0,0-3.82,3.84c0,2.651,2.363,4.785,5.934,8.063Z" transform="translate(-339.866 -230.633)" fill="#d7385e" opacity="0.1"/>
    </g>
  </g>
</svg>