<svg xmlns:xlink="http://www.w3.org/1999/xlink" xmlns="http://www.w3.org/2000/svg" viewBox="143.019 93.511 32 32" width="32" height="32">
  <g transform="matrix(0.005813, 0, 0, -0.005813, 149.600525, 118.631937)" fill="#D7385E" stroke="none">
    <path d="M 1874 3036 C 1742 3095 1728.736 2997.599 1715.736 2943.599 C 1701.736 2889.599 1652 2676 1615 2505 C 1579 2335 1536 2134 1520 2060 C 1442 1703 1205 591 1180 460 C 1168 402 1145 296 1129 223 C 1112 150 1100.707 84.566 1108.203 77.652 C 1126.368 60.896 1175.364 172.813 1228.364 285.813 C 1281.364 397.813 1388.856 625.797 1485.856 828.797 C 1582.856 1032.797 1757 1428 1885 1700 C 2013 1972 2146 2254 2180 2325 C 2313 2603 2380 2751 2380 2767 C 2380 2772 2438 2861 2311 2890 C 2170 2922 2011 2975 1874 3036 Z M 1992 2740 C 2046 2725 2073.165 2681.591 2073.165 2638.591 C 2073.165 2619.591 2089.58 2589.132 2089.757 2588.805 C 2093.151 2582.548 2119.667 2620.745 2111.59 2646.62 C 2101.513 2678.904 2041.227 2718.321 2041.227 2725.537 C 2041.227 2751.537 1963.563 2750.288 1931.563 2750.288 C 1903.563 2750.288 1833.767 2691.851 1833.767 2666.851 C 1833.767 2661.851 1852.955 2598.188 1888.955 2564.188 C 1945.955 2509.188 1956.952 2507 1956.952 2475 C 1956.952 2448 2022 2431 2001 2409 C 1932 2341 1819.437 2418.078 1819.437 2513.078 C 1819.437 2535.078 1793 2530 1796 2530 C 1816 2530 1817.524 2427.333 1817.524 2406.333 C 1817.524 2356.333 2001.667 2367.286 2040.667 2403.286 C 2072.667 2432.286 1984 2492 1915 2555 C 1842 2623 1833 2655 1871 2704 C 1905 2747 1934 2756 1992 2740 Z"/>
    <path d="M 1031 2413 C 996 2385 988 2326 1009 2263 C 1029 2204 1025 2196 995 2239 C 985 2256 959 2278 938 2290 C 888 2318 843 2313 817 2278 C 797 2251 811.674 2217.522 813 2215 C 837.207 2180.627 893 2140 945 2140 C 964 2140 980 2136 980 2130 C 980 2125 966 2120 948 2120 C 903 2120 838 2085 817 2050 C 798 2018 801 1991 826 1965 C 861 1930 957 1959 993 2016 C 1024 2064 1030 2058 1009 1997 C 973 1889 1034 1794 1107 1845 C 1151 1876 1158 1954 1124 2023 C 1104 2060 1114 2057 1152 2014 C 1190 1971 1229 1950 1270 1950 C 1305 1950 1340 1980 1340 2011 C 1340 2063 1261 2120 1189 2120 C 1171 2120 1161 2124 1165 2130 C 1168 2136 1185 2140 1202 2140 C 1266 2140 1340 2197 1340 2246 C 1340 2259 1331 2279 1320 2290 C 1280 2330 1197 2306 1149 2241 C 1121 2203 1105 2201 1124 2238 C 1158 2306 1151 2384 1107 2415 C 1079 2435 1057 2434 1031 2413 Z"/>
    <path d="M 1951 1293 C 1916 1265 1908 1206 1929 1143 C 1949 1084 1945 1076 1915 1119 C 1905 1136 1879 1158 1858 1170 C 1808 1198 1763 1193 1737 1158 C 1717 1131 1726.784 1106.882 1733 1095 C 1754.342 1054.205 1813 1020 1865 1020 C 1884 1020 1900 1016 1900 1010 C 1900 1005 1886 1000 1868 1000 C 1823 1000 1758 965 1737 930 C 1718 898 1721 871 1746 845 C 1781 810 1877 839 1913 896 C 1944 944 1950 938 1929 877 C 1893 769 1954 674 2027 725 C 2071 756 2078 834 2044 903 C 2024 940 2034 937 2072 894 C 2110 851 2149 830 2190 830 C 2225 830 2260 860 2260 891 C 2260 943 2181 1000 2109 1000 C 2091 1000 2081 1004 2085 1010 C 2088 1016 2105 1020 2122 1020 C 2186 1020 2260 1077 2260 1126 C 2260 1139 2251 1159 2240 1170 C 2200 1210 2117 1186 2069 1121 C 2041 1083 2025 1081 2044 1118 C 2078 1186 2071 1264 2027 1295 C 1999 1315 1977 1314 1951 1293 Z"/>
    <path d="M 761 993 C 726 965 718 906 739 843 C 759 784 755 776 725 819 C 715 836 689 858 668 870 C 618 898 573 893 547 858 C 527 831 535.479 808.312 543 795 C 565.229 755.657 623 720 675 720 C 694 720 710 716 710 710 C 710 705 696 700 678 700 C 633 700 568 665 547 630 C 528 598 531 571 556 545 C 591 510 687 539 723 596 C 754 644 760 638 739 577 C 703 469 764 374 837 425 C 881 456 888 534 854 603 C 834 640 844 637 882 594 C 920 551 959 530 1000 530 C 1035 530 1070 560 1070 591 C 1070 643 991 700 919 700 C 901 700 891 704 895 710 C 898 716 915 720 932 720 C 996 720 1070 777 1070 826 C 1070 839 1061 859 1050 870 C 1010 910 927 886 879 821 C 851 783 835 781 854 818 C 888 886 881 964 837 995 C 809 1015 787 1014 761 993 Z"/>
  </g>
  <path opacity="0.1" d="M 127.2 191.214 C 136.037 191.214 143.2 184.05 143.2 175.214 C 143.2 166.377 136.037 159.214 127.2 159.214 C 118.364 159.214 111.2 166.377 111.2 175.214 C 111.2 184.05 118.364 191.214 127.2 191.214 Z" fill="#D7385E" transform="matrix(1, 0, 0, 1, 31.818938, -65.703179)"/>
</svg>