<svg xmlns:xlink="http://www.w3.org/1999/xlink" xmlns="http://www.w3.org/2000/svg" width="36" height="36" viewBox="0 0 36 36">
  <g id="Group_4773" data-name="Group 4773" transform="translate(15278 14262)">
    <circle id="Ellipse_38759" data-name="Ellipse 38759" cx="18" cy="18" r="18" transform="translate(-15278 -14262)" fill="#132743" opacity="0.1"/>
    <path id="Path_5950" data-name="Path 5950" d="M6.814-11.8,2.333-8.108v3.983a.389.389,0,0,0,.389.389l2.723-.007a.389.389,0,0,0,.387-.389V-6.458a.389.389,0,0,1,.389-.389H7.776a.389.389,0,0,1,.389.389v2.324h0a.389.389,0,0,0,.389.389l2.722.008a.389.389,0,0,0,.389-.389V-8.111L7.186-11.8A.3.3,0,0,0,7-11.864.3.3,0,0,0,6.814-11.8Zm7.078,2.508L11.86-10.965v-3.366a.292.292,0,0,0-.292-.292H10.207a.292.292,0,0,0-.292.292v1.765L7.74-14.357A1.161,1.161,0,0,0,7-14.623a1.166,1.166,0,0,0-.742.265L.105-9.291A.291.291,0,0,0,0-9.066a.291.291,0,0,0,.067.186l.62.753a.291.291,0,0,0,.225.107A.291.291,0,0,0,1.1-8.087L6.814-12.8A.3.3,0,0,1,7-12.861a.3.3,0,0,1,.186.065L12.9-8.087a.29.29,0,0,0,.186.067.291.291,0,0,0,.225-.106l.62-.753A.29.29,0,0,0,14-9.064.291.291,0,0,0,13.892-9.291Z" transform="translate(-15266.999 -14234.377)" fill="#132743"/>
  </g>
</svg>