<svg xmlns:xlink="http://www.w3.org/1999/xlink" xmlns="http://www.w3.org/2000/svg" width="36" height="36" viewBox="0 0 36 36">
  <g id="Group_13427" data-name="Group 13427" transform="translate(15278 14386)">
    <circle id="Ellipse_38758" data-name="Ellipse 38758" cx="18" cy="18" r="18" transform="translate(-15278 -14386)" fill="#132743" opacity="0.1"/>
    <path id="Path_21671" data-name="Path 21671" d="M-.54,1.468a.657.657,0,0,0,1.079,0C4.513-4.292,5.25-4.883,5.25-7A5.25,5.25,0,0,0,0-12.25,5.25,5.25,0,0,0-5.25-7C-5.25-4.883-4.513-4.292-.54,1.468ZM0-4.812A2.188,2.188,0,0,1-2.187-7,2.188,2.188,0,0,1,0-9.187,2.188,2.188,0,0,1,2.188-7,2.188,2.188,0,0,1,0-4.812Z" transform="translate(-15260 -14363)" fill="#132743" stroke="rgba(0,0,0,0)" stroke-width="1"/>
  </g>
</svg>