<svg xmlns:xlink="http://www.w3.org/1999/xlink" xmlns="http://www.w3.org/2000/svg" width="44" height="44" viewBox="0 0 44 44">
  <g id="Group_13074" data-name="Group 13074" transform="translate(-809 -14)">
    <circle id="Ellipse_38865" data-name="Ellipse 38865" cx="22" cy="22" r="22" transform="translate(809 14)" fill="#d7385e"/>
    <path id="Path_20772" data-name="Path 20772" d="M13.9.571l-3.32-3.32a.325.325,0,0,0-.232-.1H9.991a5.672,5.672,0,0,0,1.384-3.719A5.687,5.687,0,0,0,5.688-12.25,5.687,5.687,0,0,0,0-6.562,5.687,5.687,0,0,0,5.688-.875,5.672,5.672,0,0,0,9.406-2.259V-1.9a.336.336,0,0,0,.1.232l3.32,3.32a.328.328,0,0,0,.465,0l.618-.618A.328.328,0,0,0,13.9.571ZM5.688-2.187A4.374,4.374,0,0,1,1.313-6.562a4.374,4.374,0,0,1,4.375-4.375,4.374,4.374,0,0,1,4.375,4.375A4.374,4.374,0,0,1,5.688-2.187Z" transform="translate(824 41.25)" fill="#fff"/>
  </g>
</svg>