<svg xmlns:xlink="http://www.w3.org/1999/xlink" xmlns="http://www.w3.org/2000/svg" width="30" height="30" viewBox="0 0 30 30">
  <g id="Group_13430" data-name="Group 13430" transform="translate(-1258 -30)">
    <path id="Path_20436" data-name="Path 20436" d="M15-12.031a15,15,0,1,0,15,15A15,15,0,0,0,15-12.031Z" transform="translate(1258 42.031)" fill="#afb6bb"/>
    <g id="Group_12818" data-name="Group 12818">
      <path id="Path_20443" data-name="Path 20443" d="M23330.477,14124.254a1.509,1.509,0,0,1-.475-1.189,7.279,7.279,0,0,1,1.486-3.858,2.612,2.612,0,0,1,.758-.618,4.214,4.214,0,0,0,6.309,0,2.711,2.711,0,0,1,.779.616,6.448,6.448,0,0,1,.758,1.243,3.077,3.077,0,0,0-2.986,3.069,3.018,3.018,0,0,0,.434,1.562,18.211,18.211,0,0,1-2.414.148C23332.395,14125.224,23331.084,14124.679,23330.477,14124.254Zm1.213-8.538a3.712,3.712,0,1,1,3.711,3.711A3.713,3.713,0,0,1,23331.689,14115.716Z" transform="translate(-22065 -14075)" fill="#f9f9f9"/>
      <circle id="Ellipse_38820" data-name="Ellipse 38820" cx="5.645" cy="5.645" r="5.645" transform="translate(1271.449 43.87)" fill="#afb6bb"/>
      <path id="Path_20472" data-name="Path 20472" d="M23337.605,14125.539a4.514,4.514,0,1,1,4.512,4.514A4.515,4.515,0,0,1,23337.605,14125.539Zm1.7.311a.518.518,0,0,0,.52.521h1.742v1.744a.521.521,0,0,0,1.043,0v-1.744h1.742a.522.522,0,0,0,.523-.521.527.527,0,0,0-.523-.523h-1.742v-1.738a.521.521,0,1,0-1.043,0v1.738h-1.742A.524.524,0,0,0,23339.3,14125.85Z" transform="translate(-22065.023 -14076.025)" fill="#f9f9f9"/>
    </g>
  </g>
</svg>