<svg xmlns:xlink="http://www.w3.org/1999/xlink" xmlns="http://www.w3.org/2000/svg" width="31" height="31" viewBox="0 0 31 31" fill="none">
<path d="M1.50977 30.0276C1.37615 30.0276 1.24422 30.0009 1.1211 29.949C0.997982 29.897 0.886197 29.821 0.792977 29.7252C0.699756 29.6295 0.62677 29.5161 0.578133 29.3916C0.529496 29.2671 0.506166 29.1342 0.509773 29.0006L0.500008 15.5276C0.497839 14.2426 0.946439 12.9976 1.76759 12.0093C2.58873 11.0209 3.73056 10.3518 4.99415 10.1185V8.02759C4.99415 7.76237 5.09958 7.50797 5.28712 7.32043C5.47465 7.1329 5.72893 7.02759 5.99415 7.02759V5.88757C5.84224 5.80069 5.71574 5.67518 5.62794 5.5238C5.54013 5.37243 5.49414 5.20063 5.49415 5.02563V1.02563C5.49415 0.760418 5.59958 0.506018 5.78712 0.318481C5.97465 0.130945 6.22893 0.0256348 6.49415 0.0256348H8.99415C9.25936 0.0256348 9.51364 0.130945 9.70118 0.318481C9.88872 0.506018 9.99415 0.760418 9.99415 1.02563V5.02563C9.99344 5.20049 9.94712 5.37206 9.85938 5.52332C9.77165 5.67457 9.64558 5.80015 9.49415 5.88757V7.02563C9.75936 7.02563 10.0136 7.13095 10.2012 7.31848C10.3887 7.50602 10.4941 7.76042 10.4941 8.02563V10.0256H11.4941V5.52759C11.4941 5.51159 11.494 5.49659 11.502 5.48059V5.43164L12.0166 2.81055C12.0656 2.59078 12.1876 2.39396 12.3623 2.25195C12.537 2.10995 12.7544 2.03108 12.9795 2.02808C13.2046 2.02507 13.4241 2.09818 13.6025 2.23547C13.781 2.37276 13.9081 2.56617 13.9629 2.78455L14.4844 5.43054V5.47961C14.4886 5.49507 14.4917 5.51076 14.4941 5.52661V10.0266H15.9941V6.71155C15.6333 6.18885 15.4573 5.56072 15.4941 4.92664C15.4941 3.52664 17.0087 2.2746 17.1797 2.1366C17.1928 2.12821 17.2065 2.12088 17.2207 2.11462C17.3011 2.06097 17.3956 2.03235 17.4922 2.03235C17.5888 2.03235 17.6833 2.06097 17.7637 2.11462C17.7779 2.12082 17.7917 2.12815 17.8047 2.1366C17.9787 2.2746 19.4932 3.52664 19.4932 4.92664C19.5302 5.56075 19.3542 6.18895 18.9932 6.71155V10.0266H20.9932V5.15955L19.0576 1.77356C19.0506 1.76556 19.0579 1.75556 19.0469 1.74756C19.0334 1.71528 19.0228 1.68182 19.0156 1.64758C19.0058 1.61497 18.9995 1.58151 18.9961 1.54761C18.9961 1.53761 18.9902 1.52953 18.9902 1.51953C18.9934 1.48588 18.9983 1.4525 19.0059 1.41956C19.0078 1.40443 19.0102 1.38949 19.0137 1.37463C19.2427 0.0596337 22.5942 0.015625 22.9922 0.015625C23.3902 0.015625 26.7397 0.0586338 26.9697 1.37463C26.9726 1.38951 26.9744 1.40446 26.9756 1.41956C26.9831 1.4525 26.9891 1.48588 26.9922 1.51953C26.9922 1.52953 26.9863 1.53761 26.9863 1.54761C26.9831 1.58162 26.9755 1.61513 26.9649 1.64758C26.9587 1.68047 26.948 1.71238 26.9336 1.74255C26.9336 1.75255 26.9338 1.76263 26.9268 1.77063L24.9912 5.15662V10.0236C25.4073 10.025 25.8213 10.0734 26.2266 10.1676L27.9268 8.46753C28.0644 8.32767 28.2282 8.21663 28.4092 8.14075C28.5901 8.06487 28.7852 8.02576 28.9815 8.02563H28.9873C29.2838 8.0255 29.5736 8.11327 29.8203 8.27783C30.067 8.44239 30.2593 8.67635 30.3731 8.9502C30.4868 9.22404 30.5165 9.52538 30.459 9.81628C30.4015 10.1072 30.2592 10.3746 30.0498 10.5846L28.9356 11.6986C29.9334 12.7222 30.4913 14.0961 30.4883 15.5256L30.4775 29.0096C30.4794 29.1421 30.4557 29.2737 30.4063 29.3966C30.3568 29.5196 30.2835 29.6314 30.1904 29.7257C30.0974 29.8201 29.9865 29.895 29.8643 29.9462C29.742 29.9973 29.6101 30.0236 29.4775 30.0236L1.50977 30.0276ZM2.80958 12.3456C2.39276 12.7638 2.06268 13.2601 1.8379 13.8062C1.61311 14.3522 1.49846 14.9371 1.50001 15.5276L1.50977 29.0135L29.4785 29.0276L29.4893 15.5276C29.4893 14.3341 29.0148 13.1895 28.1709 12.3456C27.327 11.5017 26.1827 11.0276 24.9893 11.0276H6.00001C5.40838 11.0271 4.82209 11.1432 4.2754 11.3694C3.72871 11.5955 3.2328 11.9272 2.81446 12.3456H2.80958ZM28.6338 9.17664L27.2774 10.5316C27.5916 10.6756 27.8908 10.8493 28.1719 11.0505L29.3399 9.88159C29.4093 9.8115 29.4567 9.72235 29.4756 9.62549C29.4945 9.52863 29.4843 9.42838 29.4463 9.33728C29.4083 9.24618 29.3448 9.1684 29.2627 9.11365C29.1806 9.05889 29.0841 9.02956 28.9854 9.02954V9.02954C28.9208 9.0295 28.8563 9.04249 28.7969 9.06775C28.7374 9.09301 28.6835 9.13011 28.6387 9.17664H28.6338ZM21.9893 10.0266H23.9893V7.52759H21.9893V10.0266ZM16.9893 10.0266H17.9893V9.02661H16.9893V10.0266ZM12.4893 10.0266H13.4893V6.02661H12.4893V10.0266ZM6.98927 7.02661C6.98927 7.29183 6.88383 7.54611 6.6963 7.73364C6.50876 7.92118 6.25448 8.02661 5.98927 8.02661V10.0266H9.48927V8.02661C9.22405 8.02661 8.96977 7.92118 8.78223 7.73364C8.5947 7.54611 8.48927 7.29183 8.48927 7.02661V6.02661H6.98927V7.02661ZM16.9893 8.02661H17.9893V7.02661H16.9893V8.02661ZM21.9893 6.52661H23.9893V5.52661H21.9893V6.52661ZM16.4893 4.92664C16.4667 5.30815 16.5483 5.68853 16.7266 6.02661H18.2471C18.4253 5.68846 18.5088 5.30834 18.4883 4.92664C18.5889 4.75132 18.641 4.55261 18.6406 4.35046C18.6402 4.14832 18.5867 3.94983 18.4854 3.7749C18.3841 3.59997 18.2386 3.45472 18.0635 3.35376C17.8884 3.2528 17.6904 3.19971 17.4883 3.19971C17.2861 3.19971 17.0872 3.2528 16.9121 3.35376C16.737 3.45472 16.5915 3.59997 16.4902 3.7749C16.3889 3.94983 16.3354 4.14832 16.335 4.35046C16.3346 4.55261 16.3877 4.75132 16.4883 4.92664H16.4893ZM12.5938 5.02661H13.3809L12.9815 3.00159L12.5938 5.02661ZM6.48927 5.02661H8.98927V1.02661H6.48927V5.02661ZM20.0674 1.53455L21.7783 4.52759H24.1963L25.9063 1.53455C24.0186 0.858935 21.9551 0.858935 20.0674 1.53455V1.53455ZM2.50001 26.5276V24.5276C2.50003 24.4287 2.52899 24.332 2.58399 24.2498C2.639 24.1675 2.71717 24.1035 2.8086 24.0657C2.90003 24.0279 3.00065 24.018 3.09766 24.0374C3.19468 24.0568 3.28365 24.1045 3.35352 24.1746C3.44644 24.2686 3.49933 24.3954 3.50001 24.5276V26.5276C3.50001 26.6602 3.44729 26.7873 3.35352 26.8811C3.25976 26.9749 3.13262 27.0276 3.00001 27.0276C2.8674 27.0276 2.74026 26.9749 2.64649 26.8811C2.55272 26.7873 2.50001 26.6602 2.50001 26.5276ZM15.1328 25.8706L9.42481 19.7756C8.83187 19.1272 8.50294 18.2803 8.50294 17.4016C8.50294 16.5229 8.83187 15.676 9.42481 15.0276C9.71308 14.7138 10.0634 14.4631 10.4531 14.291C10.8429 14.1189 11.2644 14.0292 11.6904 14.0276V14.0276C12.1171 14.0284 12.5383 14.1177 12.9287 14.2898C13.3191 14.4619 13.6697 14.7131 13.958 15.0276L15.499 16.6726L17.0371 15.0276C17.3263 14.7136 17.6768 14.4627 18.0674 14.2906C18.458 14.1186 18.8798 14.029 19.3066 14.0276V14.0276C19.7323 14.029 20.1537 14.1185 20.543 14.2906C20.9323 14.4628 21.2818 14.7137 21.5693 15.0276C22.1614 15.6765 22.4893 16.5232 22.4893 17.4016C22.4893 18.28 22.1614 19.1268 21.5693 19.7756L15.8613 25.8706C15.8145 25.9205 15.7581 25.9602 15.6953 25.9874C15.6325 26.0146 15.5645 26.0286 15.4961 26.0286C15.4274 26.0289 15.3591 26.015 15.2959 25.9878C15.2328 25.9606 15.1759 25.9208 15.1289 25.8706H15.1328ZM10.1543 15.7115C9.73254 16.1733 9.49805 16.7762 9.49805 17.4016C9.49805 18.027 9.73254 18.6298 10.1543 19.0916L15.5 24.7986L20.8438 19.0916C21.2668 18.6304 21.502 18.0274 21.502 17.4016C21.502 16.7758 21.2668 16.1727 20.8438 15.7115C20.6486 15.4984 20.4116 15.3278 20.1475 15.2104C19.8833 15.0931 19.5976 15.0315 19.3086 15.0295V15.0295C19.0185 15.0313 18.7321 15.0927 18.4668 15.2101C18.2015 15.3274 17.9631 15.4981 17.7666 15.7115L15.8672 17.7466C15.7699 17.8425 15.6386 17.8962 15.502 17.8962C15.3654 17.8962 15.234 17.8425 15.1367 17.7466L13.2373 15.7115C13.0417 15.4979 12.8039 15.327 12.5391 15.2096C12.2742 15.0922 11.9879 15.0309 11.6982 15.0295V15.0295C11.4069 15.0289 11.1182 15.0893 10.8516 15.2068C10.585 15.3242 10.3466 15.4962 10.1504 15.7115H10.1543ZM2.50001 22.5276V16.0276C2.50003 15.9287 2.52899 15.832 2.58399 15.7498C2.639 15.6675 2.71717 15.6035 2.8086 15.5657C2.90003 15.5279 3.00065 15.518 3.09766 15.5374C3.19468 15.5568 3.28365 15.6045 3.35352 15.6746C3.44644 15.7686 3.49933 15.8954 3.50001 16.0276V22.5276C3.50001 22.6602 3.44729 22.7873 3.35352 22.8811C3.25976 22.9749 3.13262 23.0276 3.00001 23.0276C2.8674 23.0276 2.74026 22.9749 2.64649 22.8811C2.55272 22.7873 2.50001 22.6602 2.50001 22.5276Z" fill="#6B7983"/>
</svg>